<mxfile host="app.diagrams.net" modified="2023-04-11T11:09:10.549Z" agent="Mozilla/5.0 (Windows NT 10.0; Win64; x64) AppleWebKit/537.36 (KHTML, like Gecko) Chrome/111.0.0.0 Safari/537.36" etag="6DzYM39qU3NJhcyTlDD7" version="21.1.4" type="device">
  <diagram id="C5RBs43oDa-KdzZeNtuy" name="Page-1">
    <mxGraphModel dx="-150" dy="973" grid="1" gridSize="10" guides="1" tooltips="1" connect="1" arrows="1" fold="1" page="0" pageScale="1" pageWidth="827" pageHeight="1169" math="0" shadow="0">
      <root>
        <mxCell id="WIyWlLk6GJQsqaUBKTNV-0" />
        <mxCell id="WIyWlLk6GJQsqaUBKTNV-1" parent="WIyWlLk6GJQsqaUBKTNV-0" />
        <mxCell id="ciR2sDOiCZd-9xjIovYl-37" style="edgeStyle=orthogonalEdgeStyle;rounded=0;orthogonalLoop=1;jettySize=auto;html=1;exitX=0.25;exitY=0;exitDx=0;exitDy=0;entryX=0.5;entryY=0;entryDx=0;entryDy=0;" parent="WIyWlLk6GJQsqaUBKTNV-1" source="9vlINu2ijhQBHvUozJI8-0" target="9vlINu2ijhQBHvUozJI8-74" edge="1">
          <mxGeometry relative="1" as="geometry">
            <Array as="points">
              <mxPoint x="1637" y="90" />
              <mxPoint x="2250" y="90" />
            </Array>
          </mxGeometry>
        </mxCell>
        <mxCell id="9vlINu2ijhQBHvUozJI8-0" value="Order" style="shape=table;startSize=30;container=1;collapsible=1;childLayout=tableLayout;fixedRows=1;rowLines=0;fontStyle=1;align=center;resizeLast=1;html=1;fillColor=#fff2cc;strokeColor=#d6b656;" parent="WIyWlLk6GJQsqaUBKTNV-1" vertex="1">
          <mxGeometry x="1590" y="158" width="190.03926355698582" height="509" as="geometry" />
        </mxCell>
        <mxCell id="9vlINu2ijhQBHvUozJI8-1" value="" style="shape=tableRow;horizontal=0;startSize=0;swimlaneHead=0;swimlaneBody=0;fillColor=none;collapsible=0;dropTarget=0;points=[[0,0.5],[1,0.5]];portConstraint=eastwest;top=0;left=0;right=0;bottom=1;" parent="9vlINu2ijhQBHvUozJI8-0" vertex="1">
          <mxGeometry y="30" width="190.03926355698582" height="30" as="geometry" />
        </mxCell>
        <mxCell id="9vlINu2ijhQBHvUozJI8-2" value="" style="shape=partialRectangle;connectable=0;fillColor=none;top=0;left=0;bottom=0;right=0;fontStyle=1;overflow=hidden;whiteSpace=wrap;html=1;" parent="9vlINu2ijhQBHvUozJI8-1" vertex="1">
          <mxGeometry width="30" height="30" as="geometry">
            <mxRectangle width="30" height="30" as="alternateBounds" />
          </mxGeometry>
        </mxCell>
        <mxCell id="9vlINu2ijhQBHvUozJI8-3" value="" style="shape=partialRectangle;connectable=0;fillColor=none;top=0;left=0;bottom=0;right=0;align=left;spacingLeft=6;fontStyle=5;overflow=hidden;whiteSpace=wrap;html=1;" parent="9vlINu2ijhQBHvUozJI8-1" vertex="1">
          <mxGeometry x="30" width="160.03926355698582" height="30" as="geometry">
            <mxRectangle width="160.03926355698582" height="30" as="alternateBounds" />
          </mxGeometry>
        </mxCell>
        <mxCell id="crPJ7tFQ0Vz0llvzbCSS-12" style="shape=tableRow;horizontal=0;startSize=0;swimlaneHead=0;swimlaneBody=0;fillColor=none;collapsible=0;dropTarget=0;points=[[0,0.5],[1,0.5]];portConstraint=eastwest;top=0;left=0;right=0;bottom=0;" parent="9vlINu2ijhQBHvUozJI8-0" vertex="1">
          <mxGeometry y="60" width="190.03926355698582" height="30" as="geometry" />
        </mxCell>
        <mxCell id="crPJ7tFQ0Vz0llvzbCSS-13" value="FK1" style="shape=partialRectangle;connectable=0;fillColor=none;top=0;left=0;bottom=0;right=0;editable=1;overflow=hidden;whiteSpace=wrap;html=1;" parent="crPJ7tFQ0Vz0llvzbCSS-12" vertex="1">
          <mxGeometry width="30" height="30" as="geometry">
            <mxRectangle width="30" height="30" as="alternateBounds" />
          </mxGeometry>
        </mxCell>
        <mxCell id="crPJ7tFQ0Vz0llvzbCSS-14" value="customer_id" style="shape=partialRectangle;connectable=0;fillColor=none;top=0;left=0;bottom=0;right=0;align=left;spacingLeft=6;overflow=hidden;whiteSpace=wrap;html=1;" parent="crPJ7tFQ0Vz0llvzbCSS-12" vertex="1">
          <mxGeometry x="30" width="160.03926355698582" height="30" as="geometry">
            <mxRectangle width="160.03926355698582" height="30" as="alternateBounds" />
          </mxGeometry>
        </mxCell>
        <mxCell id="8LSA0JV7mJ2hiwA9IjpK-10" style="shape=tableRow;horizontal=0;startSize=0;swimlaneHead=0;swimlaneBody=0;fillColor=none;collapsible=0;dropTarget=0;points=[[0,0.5],[1,0.5]];portConstraint=eastwest;top=0;left=0;right=0;bottom=0;" parent="9vlINu2ijhQBHvUozJI8-0" vertex="1">
          <mxGeometry y="90" width="190.03926355698582" height="30" as="geometry" />
        </mxCell>
        <mxCell id="8LSA0JV7mJ2hiwA9IjpK-11" value="FK2" style="shape=partialRectangle;connectable=0;fillColor=none;top=0;left=0;bottom=0;right=0;editable=1;overflow=hidden;whiteSpace=wrap;html=1;" parent="8LSA0JV7mJ2hiwA9IjpK-10" vertex="1">
          <mxGeometry width="30" height="30" as="geometry">
            <mxRectangle width="30" height="30" as="alternateBounds" />
          </mxGeometry>
        </mxCell>
        <mxCell id="8LSA0JV7mJ2hiwA9IjpK-12" value="order_location_id" style="shape=partialRectangle;connectable=0;fillColor=none;top=0;left=0;bottom=0;right=0;align=left;spacingLeft=6;overflow=hidden;whiteSpace=wrap;html=1;" parent="8LSA0JV7mJ2hiwA9IjpK-10" vertex="1">
          <mxGeometry x="30" width="160.03926355698582" height="30" as="geometry">
            <mxRectangle width="160.03926355698582" height="30" as="alternateBounds" />
          </mxGeometry>
        </mxCell>
        <mxCell id="crPJ7tFQ0Vz0llvzbCSS-18" style="shape=tableRow;horizontal=0;startSize=0;swimlaneHead=0;swimlaneBody=0;fillColor=none;collapsible=0;dropTarget=0;points=[[0,0.5],[1,0.5]];portConstraint=eastwest;top=0;left=0;right=0;bottom=0;" parent="9vlINu2ijhQBHvUozJI8-0" vertex="1">
          <mxGeometry y="120" width="190.03926355698582" height="30" as="geometry" />
        </mxCell>
        <mxCell id="crPJ7tFQ0Vz0llvzbCSS-19" value="FK3" style="shape=partialRectangle;connectable=0;fillColor=none;top=0;left=0;bottom=0;right=0;editable=1;overflow=hidden;whiteSpace=wrap;html=1;" parent="crPJ7tFQ0Vz0llvzbCSS-18" vertex="1">
          <mxGeometry width="30" height="30" as="geometry">
            <mxRectangle width="30" height="30" as="alternateBounds" />
          </mxGeometry>
        </mxCell>
        <mxCell id="crPJ7tFQ0Vz0llvzbCSS-20" value="shipping_date" style="shape=partialRectangle;connectable=0;fillColor=none;top=0;left=0;bottom=0;right=0;align=left;spacingLeft=6;overflow=hidden;whiteSpace=wrap;html=1;" parent="crPJ7tFQ0Vz0llvzbCSS-18" vertex="1">
          <mxGeometry x="30" width="160.03926355698582" height="30" as="geometry">
            <mxRectangle width="160.03926355698582" height="30" as="alternateBounds" />
          </mxGeometry>
        </mxCell>
        <mxCell id="9vlINu2ijhQBHvUozJI8-199" style="shape=tableRow;horizontal=0;startSize=0;swimlaneHead=0;swimlaneBody=0;fillColor=none;collapsible=0;dropTarget=0;points=[[0,0.5],[1,0.5]];portConstraint=eastwest;top=0;left=0;right=0;bottom=0;fontStyle=1" parent="9vlINu2ijhQBHvUozJI8-0" vertex="1">
          <mxGeometry y="150" width="190.03926355698582" height="29" as="geometry" />
        </mxCell>
        <mxCell id="9vlINu2ijhQBHvUozJI8-200" value="FK4" style="shape=partialRectangle;connectable=0;fillColor=none;top=0;left=0;bottom=0;right=0;editable=1;overflow=hidden;whiteSpace=wrap;html=1;" parent="9vlINu2ijhQBHvUozJI8-199" vertex="1">
          <mxGeometry width="30" height="29" as="geometry">
            <mxRectangle width="30" height="29" as="alternateBounds" />
          </mxGeometry>
        </mxCell>
        <mxCell id="9vlINu2ijhQBHvUozJI8-201" value="order_date" style="shape=partialRectangle;connectable=0;fillColor=none;top=0;left=0;bottom=0;right=0;align=left;spacingLeft=6;overflow=hidden;whiteSpace=wrap;html=1;fontStyle=0" parent="9vlINu2ijhQBHvUozJI8-199" vertex="1">
          <mxGeometry x="30" width="160.03926355698582" height="29" as="geometry">
            <mxRectangle width="160.03926355698582" height="29" as="alternateBounds" />
          </mxGeometry>
        </mxCell>
        <mxCell id="9vlINu2ijhQBHvUozJI8-196" style="shape=tableRow;horizontal=0;startSize=0;swimlaneHead=0;swimlaneBody=0;fillColor=none;collapsible=0;dropTarget=0;points=[[0,0.5],[1,0.5]];portConstraint=eastwest;top=0;left=0;right=0;bottom=0;" parent="9vlINu2ijhQBHvUozJI8-0" vertex="1">
          <mxGeometry y="179" width="190.03926355698582" height="30" as="geometry" />
        </mxCell>
        <mxCell id="9vlINu2ijhQBHvUozJI8-197" style="shape=partialRectangle;connectable=0;fillColor=none;top=0;left=0;bottom=0;right=0;editable=1;overflow=hidden;whiteSpace=wrap;html=1;" parent="9vlINu2ijhQBHvUozJI8-196" vertex="1">
          <mxGeometry width="30" height="30" as="geometry">
            <mxRectangle width="30" height="30" as="alternateBounds" />
          </mxGeometry>
        </mxCell>
        <mxCell id="9vlINu2ijhQBHvUozJI8-198" value="payment_type" style="shape=partialRectangle;connectable=0;fillColor=none;top=0;left=0;bottom=0;right=0;align=left;spacingLeft=6;overflow=hidden;whiteSpace=wrap;html=1;" parent="9vlINu2ijhQBHvUozJI8-196" vertex="1">
          <mxGeometry x="30" width="160.03926355698582" height="30" as="geometry">
            <mxRectangle width="160.03926355698582" height="30" as="alternateBounds" />
          </mxGeometry>
        </mxCell>
        <mxCell id="9vlINu2ijhQBHvUozJI8-220" style="shape=tableRow;horizontal=0;startSize=0;swimlaneHead=0;swimlaneBody=0;fillColor=none;collapsible=0;dropTarget=0;points=[[0,0.5],[1,0.5]];portConstraint=eastwest;top=0;left=0;right=0;bottom=0;" parent="9vlINu2ijhQBHvUozJI8-0" vertex="1">
          <mxGeometry y="209" width="190.03926355698582" height="30" as="geometry" />
        </mxCell>
        <mxCell id="9vlINu2ijhQBHvUozJI8-221" style="shape=partialRectangle;connectable=0;fillColor=none;top=0;left=0;bottom=0;right=0;editable=1;overflow=hidden;whiteSpace=wrap;html=1;" parent="9vlINu2ijhQBHvUozJI8-220" vertex="1">
          <mxGeometry width="30" height="30" as="geometry">
            <mxRectangle width="30" height="30" as="alternateBounds" />
          </mxGeometry>
        </mxCell>
        <mxCell id="9vlINu2ijhQBHvUozJI8-222" value="days_shipping_real" style="shape=partialRectangle;connectable=0;fillColor=none;top=0;left=0;bottom=0;right=0;align=left;spacingLeft=6;overflow=hidden;whiteSpace=wrap;html=1;" parent="9vlINu2ijhQBHvUozJI8-220" vertex="1">
          <mxGeometry x="30" width="160.03926355698582" height="30" as="geometry">
            <mxRectangle width="160.03926355698582" height="30" as="alternateBounds" />
          </mxGeometry>
        </mxCell>
        <mxCell id="9vlINu2ijhQBHvUozJI8-223" style="shape=tableRow;horizontal=0;startSize=0;swimlaneHead=0;swimlaneBody=0;fillColor=none;collapsible=0;dropTarget=0;points=[[0,0.5],[1,0.5]];portConstraint=eastwest;top=0;left=0;right=0;bottom=0;" parent="9vlINu2ijhQBHvUozJI8-0" vertex="1">
          <mxGeometry y="239" width="190.03926355698582" height="30" as="geometry" />
        </mxCell>
        <mxCell id="9vlINu2ijhQBHvUozJI8-224" style="shape=partialRectangle;connectable=0;fillColor=none;top=0;left=0;bottom=0;right=0;editable=1;overflow=hidden;whiteSpace=wrap;html=1;" parent="9vlINu2ijhQBHvUozJI8-223" vertex="1">
          <mxGeometry width="30" height="30" as="geometry">
            <mxRectangle width="30" height="30" as="alternateBounds" />
          </mxGeometry>
        </mxCell>
        <mxCell id="9vlINu2ijhQBHvUozJI8-225" value="days_shipping_scheduled" style="shape=partialRectangle;connectable=0;fillColor=none;top=0;left=0;bottom=0;right=0;align=left;spacingLeft=6;overflow=hidden;whiteSpace=wrap;html=1;" parent="9vlINu2ijhQBHvUozJI8-223" vertex="1">
          <mxGeometry x="30" width="160.03926355698582" height="30" as="geometry">
            <mxRectangle width="160.03926355698582" height="30" as="alternateBounds" />
          </mxGeometry>
        </mxCell>
        <mxCell id="9vlINu2ijhQBHvUozJI8-229" style="shape=tableRow;horizontal=0;startSize=0;swimlaneHead=0;swimlaneBody=0;fillColor=none;collapsible=0;dropTarget=0;points=[[0,0.5],[1,0.5]];portConstraint=eastwest;top=0;left=0;right=0;bottom=0;" parent="9vlINu2ijhQBHvUozJI8-0" vertex="1">
          <mxGeometry y="269" width="190.03926355698582" height="30" as="geometry" />
        </mxCell>
        <mxCell id="9vlINu2ijhQBHvUozJI8-230" style="shape=partialRectangle;connectable=0;fillColor=none;top=0;left=0;bottom=0;right=0;editable=1;overflow=hidden;whiteSpace=wrap;html=1;" parent="9vlINu2ijhQBHvUozJI8-229" vertex="1">
          <mxGeometry width="30" height="30" as="geometry">
            <mxRectangle width="30" height="30" as="alternateBounds" />
          </mxGeometry>
        </mxCell>
        <mxCell id="9vlINu2ijhQBHvUozJI8-231" value="delivery_status" style="shape=partialRectangle;connectable=0;fillColor=none;top=0;left=0;bottom=0;right=0;align=left;spacingLeft=6;overflow=hidden;whiteSpace=wrap;html=1;" parent="9vlINu2ijhQBHvUozJI8-229" vertex="1">
          <mxGeometry x="30" width="160.03926355698582" height="30" as="geometry">
            <mxRectangle width="160.03926355698582" height="30" as="alternateBounds" />
          </mxGeometry>
        </mxCell>
        <mxCell id="9vlINu2ijhQBHvUozJI8-226" style="shape=tableRow;horizontal=0;startSize=0;swimlaneHead=0;swimlaneBody=0;fillColor=none;collapsible=0;dropTarget=0;points=[[0,0.5],[1,0.5]];portConstraint=eastwest;top=0;left=0;right=0;bottom=0;" parent="9vlINu2ijhQBHvUozJI8-0" vertex="1">
          <mxGeometry y="299" width="190.03926355698582" height="30" as="geometry" />
        </mxCell>
        <mxCell id="9vlINu2ijhQBHvUozJI8-227" style="shape=partialRectangle;connectable=0;fillColor=none;top=0;left=0;bottom=0;right=0;editable=1;overflow=hidden;whiteSpace=wrap;html=1;" parent="9vlINu2ijhQBHvUozJI8-226" vertex="1">
          <mxGeometry width="30" height="30" as="geometry">
            <mxRectangle width="30" height="30" as="alternateBounds" />
          </mxGeometry>
        </mxCell>
        <mxCell id="9vlINu2ijhQBHvUozJI8-228" value="late_delivery_risk" style="shape=partialRectangle;connectable=0;fillColor=none;top=0;left=0;bottom=0;right=0;align=left;spacingLeft=6;overflow=hidden;whiteSpace=wrap;html=1;" parent="9vlINu2ijhQBHvUozJI8-226" vertex="1">
          <mxGeometry x="30" width="160.03926355698582" height="30" as="geometry">
            <mxRectangle width="160.03926355698582" height="30" as="alternateBounds" />
          </mxGeometry>
        </mxCell>
        <mxCell id="9vlINu2ijhQBHvUozJI8-211" style="shape=tableRow;horizontal=0;startSize=0;swimlaneHead=0;swimlaneBody=0;fillColor=none;collapsible=0;dropTarget=0;points=[[0,0.5],[1,0.5]];portConstraint=eastwest;top=0;left=0;right=0;bottom=0;" parent="9vlINu2ijhQBHvUozJI8-0" vertex="1">
          <mxGeometry y="329" width="190.03926355698582" height="30" as="geometry" />
        </mxCell>
        <mxCell id="9vlINu2ijhQBHvUozJI8-212" style="shape=partialRectangle;connectable=0;fillColor=none;top=0;left=0;bottom=0;right=0;editable=1;overflow=hidden;whiteSpace=wrap;html=1;" parent="9vlINu2ijhQBHvUozJI8-211" vertex="1">
          <mxGeometry width="30" height="30" as="geometry">
            <mxRectangle width="30" height="30" as="alternateBounds" />
          </mxGeometry>
        </mxCell>
        <mxCell id="9vlINu2ijhQBHvUozJI8-213" value="profit_per_order" style="shape=partialRectangle;connectable=0;fillColor=none;top=0;left=0;bottom=0;right=0;align=left;spacingLeft=6;overflow=hidden;whiteSpace=wrap;html=1;fontStyle=0" parent="9vlINu2ijhQBHvUozJI8-211" vertex="1">
          <mxGeometry x="30" width="160.03926355698582" height="30" as="geometry">
            <mxRectangle width="160.03926355698582" height="30" as="alternateBounds" />
          </mxGeometry>
        </mxCell>
        <mxCell id="9vlINu2ijhQBHvUozJI8-214" style="shape=tableRow;horizontal=0;startSize=0;swimlaneHead=0;swimlaneBody=0;fillColor=none;collapsible=0;dropTarget=0;points=[[0,0.5],[1,0.5]];portConstraint=eastwest;top=0;left=0;right=0;bottom=0;" parent="9vlINu2ijhQBHvUozJI8-0" vertex="1">
          <mxGeometry y="359" width="190.03926355698582" height="30" as="geometry" />
        </mxCell>
        <mxCell id="9vlINu2ijhQBHvUozJI8-215" style="shape=partialRectangle;connectable=0;fillColor=none;top=0;left=0;bottom=0;right=0;editable=1;overflow=hidden;whiteSpace=wrap;html=1;" parent="9vlINu2ijhQBHvUozJI8-214" vertex="1">
          <mxGeometry width="30" height="30" as="geometry">
            <mxRectangle width="30" height="30" as="alternateBounds" />
          </mxGeometry>
        </mxCell>
        <mxCell id="9vlINu2ijhQBHvUozJI8-216" value="order_status" style="shape=partialRectangle;connectable=0;fillColor=none;top=0;left=0;bottom=0;right=0;align=left;spacingLeft=6;overflow=hidden;whiteSpace=wrap;html=1;fontStyle=0" parent="9vlINu2ijhQBHvUozJI8-214" vertex="1">
          <mxGeometry x="30" width="160.03926355698582" height="30" as="geometry">
            <mxRectangle width="160.03926355698582" height="30" as="alternateBounds" />
          </mxGeometry>
        </mxCell>
        <mxCell id="9vlINu2ijhQBHvUozJI8-208" style="shape=tableRow;horizontal=0;startSize=0;swimlaneHead=0;swimlaneBody=0;fillColor=none;collapsible=0;dropTarget=0;points=[[0,0.5],[1,0.5]];portConstraint=eastwest;top=0;left=0;right=0;bottom=0;fontStyle=1" parent="9vlINu2ijhQBHvUozJI8-0" vertex="1">
          <mxGeometry y="389" width="190.03926355698582" height="30" as="geometry" />
        </mxCell>
        <mxCell id="9vlINu2ijhQBHvUozJI8-209" style="shape=partialRectangle;connectable=0;fillColor=none;top=0;left=0;bottom=0;right=0;editable=1;overflow=hidden;whiteSpace=wrap;html=1;" parent="9vlINu2ijhQBHvUozJI8-208" vertex="1">
          <mxGeometry width="30" height="30" as="geometry">
            <mxRectangle width="30" height="30" as="alternateBounds" />
          </mxGeometry>
        </mxCell>
        <mxCell id="9vlINu2ijhQBHvUozJI8-210" value="shipping_mode" style="shape=partialRectangle;connectable=0;fillColor=none;top=0;left=0;bottom=0;right=0;align=left;spacingLeft=6;overflow=hidden;whiteSpace=wrap;html=1;fontStyle=0" parent="9vlINu2ijhQBHvUozJI8-208" vertex="1">
          <mxGeometry x="30" width="160.03926355698582" height="30" as="geometry">
            <mxRectangle width="160.03926355698582" height="30" as="alternateBounds" />
          </mxGeometry>
        </mxCell>
        <mxCell id="9vlINu2ijhQBHvUozJI8-4" value="" style="shape=tableRow;horizontal=0;startSize=0;swimlaneHead=0;swimlaneBody=0;fillColor=none;collapsible=0;dropTarget=0;points=[[0,0.5],[1,0.5]];portConstraint=eastwest;top=0;left=0;right=0;bottom=0;" parent="9vlINu2ijhQBHvUozJI8-0" vertex="1">
          <mxGeometry y="419" width="190.03926355698582" height="30" as="geometry" />
        </mxCell>
        <mxCell id="9vlINu2ijhQBHvUozJI8-5" value="" style="shape=partialRectangle;connectable=0;fillColor=none;top=0;left=0;bottom=0;right=0;editable=1;overflow=hidden;whiteSpace=wrap;html=1;" parent="9vlINu2ijhQBHvUozJI8-4" vertex="1">
          <mxGeometry width="30" height="30" as="geometry">
            <mxRectangle width="30" height="30" as="alternateBounds" />
          </mxGeometry>
        </mxCell>
        <mxCell id="9vlINu2ijhQBHvUozJI8-6" value="number_of_items" style="shape=partialRectangle;connectable=0;fillColor=none;top=0;left=0;bottom=0;right=0;align=left;spacingLeft=6;overflow=hidden;whiteSpace=wrap;html=1;fontStyle=0" parent="9vlINu2ijhQBHvUozJI8-4" vertex="1">
          <mxGeometry x="30" width="160.03926355698582" height="30" as="geometry">
            <mxRectangle width="160.03926355698582" height="30" as="alternateBounds" />
          </mxGeometry>
        </mxCell>
        <mxCell id="qMYEpVoAq5XhD6evY4pM-0" style="shape=tableRow;horizontal=0;startSize=0;swimlaneHead=0;swimlaneBody=0;fillColor=none;collapsible=0;dropTarget=0;points=[[0,0.5],[1,0.5]];portConstraint=eastwest;top=0;left=0;right=0;bottom=0;" parent="9vlINu2ijhQBHvUozJI8-0" vertex="1">
          <mxGeometry y="449" width="190.03926355698582" height="30" as="geometry" />
        </mxCell>
        <mxCell id="qMYEpVoAq5XhD6evY4pM-1" style="shape=partialRectangle;connectable=0;fillColor=none;top=0;left=0;bottom=0;right=0;editable=1;overflow=hidden;whiteSpace=wrap;html=1;" parent="qMYEpVoAq5XhD6evY4pM-0" vertex="1">
          <mxGeometry width="30" height="30" as="geometry">
            <mxRectangle width="30" height="30" as="alternateBounds" />
          </mxGeometry>
        </mxCell>
        <mxCell id="qMYEpVoAq5XhD6evY4pM-2" value="total_discount" style="shape=partialRectangle;connectable=0;fillColor=none;top=0;left=0;bottom=0;right=0;align=left;spacingLeft=6;overflow=hidden;whiteSpace=wrap;html=1;fontStyle=0" parent="qMYEpVoAq5XhD6evY4pM-0" vertex="1">
          <mxGeometry x="30" width="160.03926355698582" height="30" as="geometry">
            <mxRectangle width="160.03926355698582" height="30" as="alternateBounds" />
          </mxGeometry>
        </mxCell>
        <mxCell id="9vlINu2ijhQBHvUozJI8-7" value="" style="shape=tableRow;horizontal=0;startSize=0;swimlaneHead=0;swimlaneBody=0;fillColor=none;collapsible=0;dropTarget=0;points=[[0,0.5],[1,0.5]];portConstraint=eastwest;top=0;left=0;right=0;bottom=0;" parent="9vlINu2ijhQBHvUozJI8-0" vertex="1">
          <mxGeometry y="479" width="190.03926355698582" height="30" as="geometry" />
        </mxCell>
        <mxCell id="9vlINu2ijhQBHvUozJI8-8" value="" style="shape=partialRectangle;connectable=0;fillColor=none;top=0;left=0;bottom=0;right=0;editable=1;overflow=hidden;whiteSpace=wrap;html=1;" parent="9vlINu2ijhQBHvUozJI8-7" vertex="1">
          <mxGeometry width="30" height="30" as="geometry">
            <mxRectangle width="30" height="30" as="alternateBounds" />
          </mxGeometry>
        </mxCell>
        <mxCell id="9vlINu2ijhQBHvUozJI8-9" value="total_price&amp;nbsp;" style="shape=partialRectangle;connectable=0;fillColor=none;top=0;left=0;bottom=0;right=0;align=left;spacingLeft=6;overflow=hidden;whiteSpace=wrap;html=1;fontStyle=0" parent="9vlINu2ijhQBHvUozJI8-7" vertex="1">
          <mxGeometry x="30" width="160.03926355698582" height="30" as="geometry">
            <mxRectangle width="160.03926355698582" height="30" as="alternateBounds" />
          </mxGeometry>
        </mxCell>
        <mxCell id="9vlINu2ijhQBHvUozJI8-16" value="Order_item" style="shape=table;startSize=29;container=1;collapsible=1;childLayout=tableLayout;fixedRows=1;rowLines=0;fontStyle=1;align=center;resizeLast=1;html=1;fillColor=#fff2cc;strokeColor=#d6b656;" parent="WIyWlLk6GJQsqaUBKTNV-1" vertex="1">
          <mxGeometry x="1590" y="762" width="190.03926355698582" height="323.5736012178311" as="geometry" />
        </mxCell>
        <mxCell id="9vlINu2ijhQBHvUozJI8-17" value="" style="shape=tableRow;horizontal=0;startSize=0;swimlaneHead=0;swimlaneBody=0;fillColor=none;collapsible=0;dropTarget=0;points=[[0,0.5],[1,0.5]];portConstraint=eastwest;top=0;left=0;right=0;bottom=1;" parent="9vlINu2ijhQBHvUozJI8-16" vertex="1">
          <mxGeometry y="29" width="190.03926355698582" height="30" as="geometry" />
        </mxCell>
        <mxCell id="9vlINu2ijhQBHvUozJI8-18" value="" style="shape=partialRectangle;connectable=0;fillColor=none;top=0;left=0;bottom=0;right=0;fontStyle=1;overflow=hidden;whiteSpace=wrap;html=1;" parent="9vlINu2ijhQBHvUozJI8-17" vertex="1">
          <mxGeometry width="30" height="30" as="geometry">
            <mxRectangle width="30" height="30" as="alternateBounds" />
          </mxGeometry>
        </mxCell>
        <mxCell id="9vlINu2ijhQBHvUozJI8-19" value="" style="shape=partialRectangle;connectable=0;fillColor=none;top=0;left=0;bottom=0;right=0;align=left;spacingLeft=6;fontStyle=5;overflow=hidden;whiteSpace=wrap;html=1;" parent="9vlINu2ijhQBHvUozJI8-17" vertex="1">
          <mxGeometry x="30" width="160.03926355698582" height="30" as="geometry">
            <mxRectangle width="160.03926355698582" height="30" as="alternateBounds" />
          </mxGeometry>
        </mxCell>
        <mxCell id="crPJ7tFQ0Vz0llvzbCSS-52" style="shape=tableRow;horizontal=0;startSize=0;swimlaneHead=0;swimlaneBody=0;fillColor=none;collapsible=0;dropTarget=0;points=[[0,0.5],[1,0.5]];portConstraint=eastwest;top=0;left=0;right=0;bottom=0;" parent="9vlINu2ijhQBHvUozJI8-16" vertex="1">
          <mxGeometry y="59" width="190.03926355698582" height="25" as="geometry" />
        </mxCell>
        <mxCell id="crPJ7tFQ0Vz0llvzbCSS-53" value="FK1" style="shape=partialRectangle;connectable=0;fillColor=none;top=0;left=0;bottom=0;right=0;editable=1;overflow=hidden;whiteSpace=wrap;html=1;" parent="crPJ7tFQ0Vz0llvzbCSS-52" vertex="1">
          <mxGeometry width="30" height="25" as="geometry">
            <mxRectangle width="30" height="25" as="alternateBounds" />
          </mxGeometry>
        </mxCell>
        <mxCell id="crPJ7tFQ0Vz0llvzbCSS-54" value="product_id" style="shape=partialRectangle;connectable=0;fillColor=none;top=0;left=0;bottom=0;right=0;align=left;spacingLeft=6;overflow=hidden;whiteSpace=wrap;html=1;" parent="crPJ7tFQ0Vz0llvzbCSS-52" vertex="1">
          <mxGeometry x="30" width="160.03926355698582" height="25" as="geometry">
            <mxRectangle width="160.03926355698582" height="25" as="alternateBounds" />
          </mxGeometry>
        </mxCell>
        <mxCell id="crPJ7tFQ0Vz0llvzbCSS-55" style="shape=tableRow;horizontal=0;startSize=0;swimlaneHead=0;swimlaneBody=0;fillColor=none;collapsible=0;dropTarget=0;points=[[0,0.5],[1,0.5]];portConstraint=eastwest;top=0;left=0;right=0;bottom=0;" parent="9vlINu2ijhQBHvUozJI8-16" vertex="1">
          <mxGeometry y="84" width="190.03926355698582" height="30" as="geometry" />
        </mxCell>
        <mxCell id="crPJ7tFQ0Vz0llvzbCSS-56" value="FK2" style="shape=partialRectangle;connectable=0;fillColor=none;top=0;left=0;bottom=0;right=0;editable=1;overflow=hidden;whiteSpace=wrap;html=1;" parent="crPJ7tFQ0Vz0llvzbCSS-55" vertex="1">
          <mxGeometry width="30" height="30" as="geometry">
            <mxRectangle width="30" height="30" as="alternateBounds" />
          </mxGeometry>
        </mxCell>
        <mxCell id="crPJ7tFQ0Vz0llvzbCSS-57" value="order_time_id" style="shape=partialRectangle;connectable=0;fillColor=none;top=0;left=0;bottom=0;right=0;align=left;spacingLeft=6;overflow=hidden;whiteSpace=wrap;html=1;" parent="crPJ7tFQ0Vz0llvzbCSS-55" vertex="1">
          <mxGeometry x="30" width="160.03926355698582" height="30" as="geometry">
            <mxRectangle width="160.03926355698582" height="30" as="alternateBounds" />
          </mxGeometry>
        </mxCell>
        <mxCell id="9vlINu2ijhQBHvUozJI8-20" value="" style="shape=tableRow;horizontal=0;startSize=0;swimlaneHead=0;swimlaneBody=0;fillColor=none;collapsible=0;dropTarget=0;points=[[0,0.5],[1,0.5]];portConstraint=eastwest;top=0;left=0;right=0;bottom=0;" parent="9vlINu2ijhQBHvUozJI8-16" vertex="1">
          <mxGeometry y="114" width="190.03926355698582" height="30" as="geometry" />
        </mxCell>
        <mxCell id="9vlINu2ijhQBHvUozJI8-21" value="" style="shape=partialRectangle;connectable=0;fillColor=none;top=0;left=0;bottom=0;right=0;editable=1;overflow=hidden;whiteSpace=wrap;html=1;" parent="9vlINu2ijhQBHvUozJI8-20" vertex="1">
          <mxGeometry width="30" height="30" as="geometry">
            <mxRectangle width="30" height="30" as="alternateBounds" />
          </mxGeometry>
        </mxCell>
        <mxCell id="9vlINu2ijhQBHvUozJI8-22" value="discount" style="shape=partialRectangle;connectable=0;fillColor=none;top=0;left=0;bottom=0;right=0;align=left;spacingLeft=6;overflow=hidden;whiteSpace=wrap;html=1;" parent="9vlINu2ijhQBHvUozJI8-20" vertex="1">
          <mxGeometry x="30" width="160.03926355698582" height="30" as="geometry">
            <mxRectangle width="160.03926355698582" height="30" as="alternateBounds" />
          </mxGeometry>
        </mxCell>
        <mxCell id="9vlINu2ijhQBHvUozJI8-232" style="shape=tableRow;horizontal=0;startSize=0;swimlaneHead=0;swimlaneBody=0;fillColor=none;collapsible=0;dropTarget=0;points=[[0,0.5],[1,0.5]];portConstraint=eastwest;top=0;left=0;right=0;bottom=0;" parent="9vlINu2ijhQBHvUozJI8-16" vertex="1">
          <mxGeometry y="144" width="190.03926355698582" height="30" as="geometry" />
        </mxCell>
        <mxCell id="9vlINu2ijhQBHvUozJI8-233" style="shape=partialRectangle;connectable=0;fillColor=none;top=0;left=0;bottom=0;right=0;editable=1;overflow=hidden;whiteSpace=wrap;html=1;" parent="9vlINu2ijhQBHvUozJI8-232" vertex="1">
          <mxGeometry width="30" height="30" as="geometry">
            <mxRectangle width="30" height="30" as="alternateBounds" />
          </mxGeometry>
        </mxCell>
        <mxCell id="9vlINu2ijhQBHvUozJI8-234" value="discount_rate" style="shape=partialRectangle;connectable=0;fillColor=none;top=0;left=0;bottom=0;right=0;align=left;spacingLeft=6;overflow=hidden;whiteSpace=wrap;html=1;" parent="9vlINu2ijhQBHvUozJI8-232" vertex="1">
          <mxGeometry x="30" width="160.03926355698582" height="30" as="geometry">
            <mxRectangle width="160.03926355698582" height="30" as="alternateBounds" />
          </mxGeometry>
        </mxCell>
        <mxCell id="9vlINu2ijhQBHvUozJI8-235" style="shape=tableRow;horizontal=0;startSize=0;swimlaneHead=0;swimlaneBody=0;fillColor=none;collapsible=0;dropTarget=0;points=[[0,0.5],[1,0.5]];portConstraint=eastwest;top=0;left=0;right=0;bottom=0;" parent="9vlINu2ijhQBHvUozJI8-16" vertex="1">
          <mxGeometry y="174" width="190.03926355698582" height="30" as="geometry" />
        </mxCell>
        <mxCell id="9vlINu2ijhQBHvUozJI8-236" style="shape=partialRectangle;connectable=0;fillColor=none;top=0;left=0;bottom=0;right=0;editable=1;overflow=hidden;whiteSpace=wrap;html=1;" parent="9vlINu2ijhQBHvUozJI8-235" vertex="1">
          <mxGeometry width="30" height="30" as="geometry">
            <mxRectangle width="30" height="30" as="alternateBounds" />
          </mxGeometry>
        </mxCell>
        <mxCell id="9vlINu2ijhQBHvUozJI8-237" value="product_price" style="shape=partialRectangle;connectable=0;fillColor=none;top=0;left=0;bottom=0;right=0;align=left;spacingLeft=6;overflow=hidden;whiteSpace=wrap;html=1;" parent="9vlINu2ijhQBHvUozJI8-235" vertex="1">
          <mxGeometry x="30" width="160.03926355698582" height="30" as="geometry">
            <mxRectangle width="160.03926355698582" height="30" as="alternateBounds" />
          </mxGeometry>
        </mxCell>
        <mxCell id="9vlINu2ijhQBHvUozJI8-238" style="shape=tableRow;horizontal=0;startSize=0;swimlaneHead=0;swimlaneBody=0;fillColor=none;collapsible=0;dropTarget=0;points=[[0,0.5],[1,0.5]];portConstraint=eastwest;top=0;left=0;right=0;bottom=0;" parent="9vlINu2ijhQBHvUozJI8-16" vertex="1">
          <mxGeometry y="204" width="190.03926355698582" height="30" as="geometry" />
        </mxCell>
        <mxCell id="9vlINu2ijhQBHvUozJI8-239" style="shape=partialRectangle;connectable=0;fillColor=none;top=0;left=0;bottom=0;right=0;editable=1;overflow=hidden;whiteSpace=wrap;html=1;" parent="9vlINu2ijhQBHvUozJI8-238" vertex="1">
          <mxGeometry width="30" height="30" as="geometry">
            <mxRectangle width="30" height="30" as="alternateBounds" />
          </mxGeometry>
        </mxCell>
        <mxCell id="9vlINu2ijhQBHvUozJI8-240" value="profit_ratio" style="shape=partialRectangle;connectable=0;fillColor=none;top=0;left=0;bottom=0;right=0;align=left;spacingLeft=6;overflow=hidden;whiteSpace=wrap;html=1;" parent="9vlINu2ijhQBHvUozJI8-238" vertex="1">
          <mxGeometry x="30" width="160.03926355698582" height="30" as="geometry">
            <mxRectangle width="160.03926355698582" height="30" as="alternateBounds" />
          </mxGeometry>
        </mxCell>
        <mxCell id="9vlINu2ijhQBHvUozJI8-241" style="shape=tableRow;horizontal=0;startSize=0;swimlaneHead=0;swimlaneBody=0;fillColor=none;collapsible=0;dropTarget=0;points=[[0,0.5],[1,0.5]];portConstraint=eastwest;top=0;left=0;right=0;bottom=0;" parent="9vlINu2ijhQBHvUozJI8-16" vertex="1">
          <mxGeometry y="234" width="190.03926355698582" height="30" as="geometry" />
        </mxCell>
        <mxCell id="9vlINu2ijhQBHvUozJI8-242" style="shape=partialRectangle;connectable=0;fillColor=none;top=0;left=0;bottom=0;right=0;editable=1;overflow=hidden;whiteSpace=wrap;html=1;" parent="9vlINu2ijhQBHvUozJI8-241" vertex="1">
          <mxGeometry width="30" height="30" as="geometry">
            <mxRectangle width="30" height="30" as="alternateBounds" />
          </mxGeometry>
        </mxCell>
        <mxCell id="9vlINu2ijhQBHvUozJI8-243" value="quantity" style="shape=partialRectangle;connectable=0;fillColor=none;top=0;left=0;bottom=0;right=0;align=left;spacingLeft=6;overflow=hidden;whiteSpace=wrap;html=1;" parent="9vlINu2ijhQBHvUozJI8-241" vertex="1">
          <mxGeometry x="30" width="160.03926355698582" height="30" as="geometry">
            <mxRectangle width="160.03926355698582" height="30" as="alternateBounds" />
          </mxGeometry>
        </mxCell>
        <mxCell id="9vlINu2ijhQBHvUozJI8-23" value="" style="shape=tableRow;horizontal=0;startSize=0;swimlaneHead=0;swimlaneBody=0;fillColor=none;collapsible=0;dropTarget=0;points=[[0,0.5],[1,0.5]];portConstraint=eastwest;top=0;left=0;right=0;bottom=0;" parent="9vlINu2ijhQBHvUozJI8-16" vertex="1">
          <mxGeometry y="264" width="190.03926355698582" height="29" as="geometry" />
        </mxCell>
        <mxCell id="9vlINu2ijhQBHvUozJI8-24" value="" style="shape=partialRectangle;connectable=0;fillColor=none;top=0;left=0;bottom=0;right=0;editable=1;overflow=hidden;whiteSpace=wrap;html=1;" parent="9vlINu2ijhQBHvUozJI8-23" vertex="1">
          <mxGeometry width="30" height="29" as="geometry">
            <mxRectangle width="30" height="29" as="alternateBounds" />
          </mxGeometry>
        </mxCell>
        <mxCell id="9vlINu2ijhQBHvUozJI8-25" value="sales" style="shape=partialRectangle;connectable=0;fillColor=none;top=0;left=0;bottom=0;right=0;align=left;spacingLeft=6;overflow=hidden;whiteSpace=wrap;html=1;" parent="9vlINu2ijhQBHvUozJI8-23" vertex="1">
          <mxGeometry x="30" width="160.03926355698582" height="29" as="geometry">
            <mxRectangle width="160.03926355698582" height="29" as="alternateBounds" />
          </mxGeometry>
        </mxCell>
        <mxCell id="9vlINu2ijhQBHvUozJI8-71" style="shape=tableRow;horizontal=0;startSize=0;swimlaneHead=0;swimlaneBody=0;fillColor=none;collapsible=0;dropTarget=0;points=[[0,0.5],[1,0.5]];portConstraint=eastwest;top=0;left=0;right=0;bottom=0;" parent="9vlINu2ijhQBHvUozJI8-16" vertex="1">
          <mxGeometry y="293" width="190.03926355698582" height="30" as="geometry" />
        </mxCell>
        <mxCell id="9vlINu2ijhQBHvUozJI8-72" style="shape=partialRectangle;connectable=0;fillColor=none;top=0;left=0;bottom=0;right=0;editable=1;overflow=hidden;whiteSpace=wrap;html=1;" parent="9vlINu2ijhQBHvUozJI8-71" vertex="1">
          <mxGeometry width="30" height="30" as="geometry">
            <mxRectangle width="30" height="30" as="alternateBounds" />
          </mxGeometry>
        </mxCell>
        <mxCell id="9vlINu2ijhQBHvUozJI8-73" value="order_item_total" style="shape=partialRectangle;connectable=0;fillColor=none;top=0;left=0;bottom=0;right=0;align=left;spacingLeft=6;overflow=hidden;whiteSpace=wrap;html=1;" parent="9vlINu2ijhQBHvUozJI8-71" vertex="1">
          <mxGeometry x="30" width="160.03926355698582" height="30" as="geometry">
            <mxRectangle width="160.03926355698582" height="30" as="alternateBounds" />
          </mxGeometry>
        </mxCell>
        <mxCell id="ciR2sDOiCZd-9xjIovYl-39" style="edgeStyle=orthogonalEdgeStyle;rounded=0;orthogonalLoop=1;jettySize=auto;html=1;exitX=0.5;exitY=0;exitDx=0;exitDy=0;entryX=0.499;entryY=1.031;entryDx=0;entryDy=0;entryPerimeter=0;" parent="WIyWlLk6GJQsqaUBKTNV-1" source="9vlINu2ijhQBHvUozJI8-26" target="9vlINu2ijhQBHvUozJI8-142" edge="1">
          <mxGeometry relative="1" as="geometry" />
        </mxCell>
        <mxCell id="9vlINu2ijhQBHvUozJI8-26" value="Agg_Sales" style="shape=table;startSize=30;container=1;collapsible=1;childLayout=tableLayout;fixedRows=1;rowLines=0;fontStyle=1;align=center;resizeLast=1;html=1;fillColor=#f8cecc;strokeColor=#b85450;" parent="WIyWlLk6GJQsqaUBKTNV-1" vertex="1">
          <mxGeometry x="2160" y="667" width="180" height="203" as="geometry" />
        </mxCell>
        <mxCell id="9vlINu2ijhQBHvUozJI8-27" value="" style="shape=tableRow;horizontal=0;startSize=0;swimlaneHead=0;swimlaneBody=0;fillColor=none;collapsible=0;dropTarget=0;points=[[0,0.5],[1,0.5]];portConstraint=eastwest;top=0;left=0;right=0;bottom=1;" parent="9vlINu2ijhQBHvUozJI8-26" vertex="1">
          <mxGeometry y="30" width="180" height="30" as="geometry" />
        </mxCell>
        <mxCell id="9vlINu2ijhQBHvUozJI8-28" value="" style="shape=partialRectangle;connectable=0;fillColor=none;top=0;left=0;bottom=0;right=0;fontStyle=1;overflow=hidden;whiteSpace=wrap;html=1;" parent="9vlINu2ijhQBHvUozJI8-27" vertex="1">
          <mxGeometry width="30" height="30" as="geometry">
            <mxRectangle width="30" height="30" as="alternateBounds" />
          </mxGeometry>
        </mxCell>
        <mxCell id="9vlINu2ijhQBHvUozJI8-29" value="" style="shape=partialRectangle;connectable=0;fillColor=none;top=0;left=0;bottom=0;right=0;align=left;spacingLeft=6;fontStyle=5;overflow=hidden;whiteSpace=wrap;html=1;" parent="9vlINu2ijhQBHvUozJI8-27" vertex="1">
          <mxGeometry x="30" width="150" height="30" as="geometry">
            <mxRectangle width="150" height="30" as="alternateBounds" />
          </mxGeometry>
        </mxCell>
        <mxCell id="crPJ7tFQ0Vz0llvzbCSS-49" style="shape=tableRow;horizontal=0;startSize=0;swimlaneHead=0;swimlaneBody=0;fillColor=none;collapsible=0;dropTarget=0;points=[[0,0.5],[1,0.5]];portConstraint=eastwest;top=0;left=0;right=0;bottom=0;" parent="9vlINu2ijhQBHvUozJI8-26" vertex="1">
          <mxGeometry y="60" width="180" height="30" as="geometry" />
        </mxCell>
        <mxCell id="crPJ7tFQ0Vz0llvzbCSS-50" value="FK1" style="shape=partialRectangle;connectable=0;fillColor=none;top=0;left=0;bottom=0;right=0;editable=1;overflow=hidden;whiteSpace=wrap;html=1;" parent="crPJ7tFQ0Vz0llvzbCSS-49" vertex="1">
          <mxGeometry width="30" height="30" as="geometry">
            <mxRectangle width="30" height="30" as="alternateBounds" />
          </mxGeometry>
        </mxCell>
        <mxCell id="crPJ7tFQ0Vz0llvzbCSS-51" value="&lt;font&gt;date_id&lt;/font&gt;" style="shape=partialRectangle;connectable=0;fillColor=none;top=0;left=0;bottom=0;right=0;align=left;spacingLeft=6;overflow=hidden;whiteSpace=wrap;html=1;strokeColor=#000000;fontColor=#000000;" parent="crPJ7tFQ0Vz0llvzbCSS-49" vertex="1">
          <mxGeometry x="30" width="150" height="30" as="geometry">
            <mxRectangle width="150" height="30" as="alternateBounds" />
          </mxGeometry>
        </mxCell>
        <mxCell id="crPJ7tFQ0Vz0llvzbCSS-61" style="shape=tableRow;horizontal=0;startSize=0;swimlaneHead=0;swimlaneBody=0;fillColor=none;collapsible=0;dropTarget=0;points=[[0,0.5],[1,0.5]];portConstraint=eastwest;top=0;left=0;right=0;bottom=0;" parent="9vlINu2ijhQBHvUozJI8-26" vertex="1">
          <mxGeometry y="90" width="180" height="30" as="geometry" />
        </mxCell>
        <mxCell id="crPJ7tFQ0Vz0llvzbCSS-62" value="FK2" style="shape=partialRectangle;connectable=0;fillColor=none;top=0;left=0;bottom=0;right=0;editable=1;overflow=hidden;whiteSpace=wrap;html=1;" parent="crPJ7tFQ0Vz0llvzbCSS-61" vertex="1">
          <mxGeometry width="30" height="30" as="geometry">
            <mxRectangle width="30" height="30" as="alternateBounds" />
          </mxGeometry>
        </mxCell>
        <mxCell id="crPJ7tFQ0Vz0llvzbCSS-63" value="order_location_id" style="shape=partialRectangle;connectable=0;fillColor=none;top=0;left=0;bottom=0;right=0;align=left;spacingLeft=6;overflow=hidden;whiteSpace=wrap;html=1;strokeColor=#FF0019;fontColor=#000000;" parent="crPJ7tFQ0Vz0llvzbCSS-61" vertex="1">
          <mxGeometry x="30" width="150" height="30" as="geometry">
            <mxRectangle width="150" height="30" as="alternateBounds" />
          </mxGeometry>
        </mxCell>
        <mxCell id="bsCWKdfR8dkoKBeMGFaL-0" style="shape=tableRow;horizontal=0;startSize=0;swimlaneHead=0;swimlaneBody=0;fillColor=none;collapsible=0;dropTarget=0;points=[[0,0.5],[1,0.5]];portConstraint=eastwest;top=0;left=0;right=0;bottom=0;" parent="9vlINu2ijhQBHvUozJI8-26" vertex="1">
          <mxGeometry y="120" width="180" height="23" as="geometry" />
        </mxCell>
        <mxCell id="bsCWKdfR8dkoKBeMGFaL-1" value="FK3" style="shape=partialRectangle;connectable=0;fillColor=none;top=0;left=0;bottom=0;right=0;editable=1;overflow=hidden;whiteSpace=wrap;html=1;" parent="bsCWKdfR8dkoKBeMGFaL-0" vertex="1">
          <mxGeometry width="30" height="23" as="geometry">
            <mxRectangle width="30" height="23" as="alternateBounds" />
          </mxGeometry>
        </mxCell>
        <mxCell id="bsCWKdfR8dkoKBeMGFaL-2" value="product_id" style="shape=partialRectangle;connectable=0;fillColor=none;top=0;left=0;bottom=0;right=0;align=left;spacingLeft=6;overflow=hidden;whiteSpace=wrap;html=1;strokeColor=#FF0019;fontColor=#000000;" parent="bsCWKdfR8dkoKBeMGFaL-0" vertex="1">
          <mxGeometry x="30" width="150" height="23" as="geometry">
            <mxRectangle width="150" height="23" as="alternateBounds" />
          </mxGeometry>
        </mxCell>
        <mxCell id="crPJ7tFQ0Vz0llvzbCSS-64" style="shape=tableRow;horizontal=0;startSize=0;swimlaneHead=0;swimlaneBody=0;fillColor=none;collapsible=0;dropTarget=0;points=[[0,0.5],[1,0.5]];portConstraint=eastwest;top=0;left=0;right=0;bottom=0;" parent="9vlINu2ijhQBHvUozJI8-26" vertex="1">
          <mxGeometry y="143" width="180" height="30" as="geometry" />
        </mxCell>
        <mxCell id="crPJ7tFQ0Vz0llvzbCSS-65" value="" style="shape=partialRectangle;connectable=0;fillColor=none;top=0;left=0;bottom=0;right=0;editable=1;overflow=hidden;whiteSpace=wrap;html=1;" parent="crPJ7tFQ0Vz0llvzbCSS-64" vertex="1">
          <mxGeometry width="30" height="30" as="geometry">
            <mxRectangle width="30" height="30" as="alternateBounds" />
          </mxGeometry>
        </mxCell>
        <mxCell id="crPJ7tFQ0Vz0llvzbCSS-66" value="segment_id" style="shape=partialRectangle;connectable=0;fillColor=none;top=0;left=0;bottom=0;right=0;align=left;spacingLeft=6;overflow=hidden;whiteSpace=wrap;html=1;strokeColor=#FF0019;fontColor=#000000;" parent="crPJ7tFQ0Vz0llvzbCSS-64" vertex="1">
          <mxGeometry x="30" width="150" height="30" as="geometry">
            <mxRectangle width="150" height="30" as="alternateBounds" />
          </mxGeometry>
        </mxCell>
        <mxCell id="9vlINu2ijhQBHvUozJI8-30" value="" style="shape=tableRow;horizontal=0;startSize=0;swimlaneHead=0;swimlaneBody=0;fillColor=none;collapsible=0;dropTarget=0;points=[[0,0.5],[1,0.5]];portConstraint=eastwest;top=0;left=0;right=0;bottom=0;" parent="9vlINu2ijhQBHvUozJI8-26" vertex="1">
          <mxGeometry y="173" width="180" height="30" as="geometry" />
        </mxCell>
        <mxCell id="9vlINu2ijhQBHvUozJI8-31" value="" style="shape=partialRectangle;connectable=0;fillColor=none;top=0;left=0;bottom=0;right=0;editable=1;overflow=hidden;whiteSpace=wrap;html=1;" parent="9vlINu2ijhQBHvUozJI8-30" vertex="1">
          <mxGeometry width="30" height="30" as="geometry">
            <mxRectangle width="30" height="30" as="alternateBounds" />
          </mxGeometry>
        </mxCell>
        <mxCell id="9vlINu2ijhQBHvUozJI8-32" value="total_sales" style="shape=partialRectangle;connectable=0;fillColor=none;top=0;left=0;bottom=0;right=0;align=left;spacingLeft=6;overflow=hidden;whiteSpace=wrap;html=1;strokeColor=#000000;" parent="9vlINu2ijhQBHvUozJI8-30" vertex="1">
          <mxGeometry x="30" width="150" height="30" as="geometry">
            <mxRectangle width="150" height="30" as="alternateBounds" />
          </mxGeometry>
        </mxCell>
        <mxCell id="9vlINu2ijhQBHvUozJI8-74" value="Time" style="shape=table;startSize=30;container=1;collapsible=1;childLayout=tableLayout;fixedRows=1;rowLines=0;fontStyle=1;align=center;resizeLast=1;html=1;" parent="WIyWlLk6GJQsqaUBKTNV-1" vertex="1">
          <mxGeometry x="2160" y="138" width="180" height="302" as="geometry" />
        </mxCell>
        <mxCell id="9vlINu2ijhQBHvUozJI8-75" value="" style="shape=tableRow;horizontal=0;startSize=0;swimlaneHead=0;swimlaneBody=0;fillColor=none;collapsible=0;dropTarget=0;points=[[0,0.5],[1,0.5]];portConstraint=eastwest;top=0;left=0;right=0;bottom=1;" parent="9vlINu2ijhQBHvUozJI8-74" vertex="1">
          <mxGeometry y="30" width="180" height="30" as="geometry" />
        </mxCell>
        <mxCell id="9vlINu2ijhQBHvUozJI8-76" value="PK" style="shape=partialRectangle;connectable=0;fillColor=none;top=0;left=0;bottom=0;right=0;fontStyle=1;overflow=hidden;whiteSpace=wrap;html=1;" parent="9vlINu2ijhQBHvUozJI8-75" vertex="1">
          <mxGeometry width="30" height="30" as="geometry">
            <mxRectangle width="30" height="30" as="alternateBounds" />
          </mxGeometry>
        </mxCell>
        <mxCell id="9vlINu2ijhQBHvUozJI8-77" value="date_id" style="shape=partialRectangle;connectable=0;fillColor=none;top=0;left=0;bottom=0;right=0;align=left;spacingLeft=6;fontStyle=5;overflow=hidden;whiteSpace=wrap;html=1;" parent="9vlINu2ijhQBHvUozJI8-75" vertex="1">
          <mxGeometry x="30" width="150" height="30" as="geometry">
            <mxRectangle width="150" height="30" as="alternateBounds" />
          </mxGeometry>
        </mxCell>
        <mxCell id="ciR2sDOiCZd-9xjIovYl-3" style="shape=tableRow;horizontal=0;startSize=0;swimlaneHead=0;swimlaneBody=0;fillColor=none;collapsible=0;dropTarget=0;points=[[0,0.5],[1,0.5]];portConstraint=eastwest;top=0;left=0;right=0;bottom=0;" parent="9vlINu2ijhQBHvUozJI8-74" vertex="1">
          <mxGeometry y="60" width="180" height="30" as="geometry" />
        </mxCell>
        <mxCell id="ciR2sDOiCZd-9xjIovYl-4" style="shape=partialRectangle;connectable=0;fillColor=none;top=0;left=0;bottom=0;right=0;editable=1;overflow=hidden;whiteSpace=wrap;html=1;" parent="ciR2sDOiCZd-9xjIovYl-3" vertex="1">
          <mxGeometry width="30" height="30" as="geometry">
            <mxRectangle width="30" height="30" as="alternateBounds" />
          </mxGeometry>
        </mxCell>
        <mxCell id="ciR2sDOiCZd-9xjIovYl-5" value="minute_id" style="shape=partialRectangle;connectable=0;fillColor=none;top=0;left=0;bottom=0;right=0;align=left;spacingLeft=6;overflow=hidden;whiteSpace=wrap;html=1;" parent="ciR2sDOiCZd-9xjIovYl-3" vertex="1">
          <mxGeometry x="30" width="150" height="30" as="geometry">
            <mxRectangle width="150" height="30" as="alternateBounds" />
          </mxGeometry>
        </mxCell>
        <mxCell id="kAgSlsQ89UG_GZrHOQOO-0" style="shape=tableRow;horizontal=0;startSize=0;swimlaneHead=0;swimlaneBody=0;fillColor=none;collapsible=0;dropTarget=0;points=[[0,0.5],[1,0.5]];portConstraint=eastwest;top=0;left=0;right=0;bottom=0;" parent="9vlINu2ijhQBHvUozJI8-74" vertex="1">
          <mxGeometry y="90" width="180" height="32" as="geometry" />
        </mxCell>
        <mxCell id="kAgSlsQ89UG_GZrHOQOO-1" value="LK" style="shape=partialRectangle;connectable=0;fillColor=none;top=0;left=0;bottom=0;right=0;editable=1;overflow=hidden;whiteSpace=wrap;html=1;" parent="kAgSlsQ89UG_GZrHOQOO-0" vertex="1">
          <mxGeometry width="30" height="32" as="geometry">
            <mxRectangle width="30" height="32" as="alternateBounds" />
          </mxGeometry>
        </mxCell>
        <mxCell id="kAgSlsQ89UG_GZrHOQOO-2" value="hour_id" style="shape=partialRectangle;connectable=0;fillColor=none;top=0;left=0;bottom=0;right=0;align=left;spacingLeft=6;overflow=hidden;whiteSpace=wrap;html=1;" parent="kAgSlsQ89UG_GZrHOQOO-0" vertex="1">
          <mxGeometry x="30" width="150" height="32" as="geometry">
            <mxRectangle width="150" height="32" as="alternateBounds" />
          </mxGeometry>
        </mxCell>
        <mxCell id="ciR2sDOiCZd-9xjIovYl-6" style="shape=tableRow;horizontal=0;startSize=0;swimlaneHead=0;swimlaneBody=0;fillColor=none;collapsible=0;dropTarget=0;points=[[0,0.5],[1,0.5]];portConstraint=eastwest;top=0;left=0;right=0;bottom=0;" parent="9vlINu2ijhQBHvUozJI8-74" vertex="1">
          <mxGeometry y="122" width="180" height="30" as="geometry" />
        </mxCell>
        <mxCell id="ciR2sDOiCZd-9xjIovYl-7" style="shape=partialRectangle;connectable=0;fillColor=none;top=0;left=0;bottom=0;right=0;editable=1;overflow=hidden;whiteSpace=wrap;html=1;" parent="ciR2sDOiCZd-9xjIovYl-6" vertex="1">
          <mxGeometry width="30" height="30" as="geometry">
            <mxRectangle width="30" height="30" as="alternateBounds" />
          </mxGeometry>
        </mxCell>
        <mxCell id="ciR2sDOiCZd-9xjIovYl-8" value="hour" style="shape=partialRectangle;connectable=0;fillColor=none;top=0;left=0;bottom=0;right=0;align=left;spacingLeft=6;overflow=hidden;whiteSpace=wrap;html=1;" parent="ciR2sDOiCZd-9xjIovYl-6" vertex="1">
          <mxGeometry x="30" width="150" height="30" as="geometry">
            <mxRectangle width="150" height="30" as="alternateBounds" />
          </mxGeometry>
        </mxCell>
        <mxCell id="a9TTICIvEp7Ggro7SNwL-0" style="shape=tableRow;horizontal=0;startSize=0;swimlaneHead=0;swimlaneBody=0;fillColor=none;collapsible=0;dropTarget=0;points=[[0,0.5],[1,0.5]];portConstraint=eastwest;top=0;left=0;right=0;bottom=0;" parent="9vlINu2ijhQBHvUozJI8-74" vertex="1">
          <mxGeometry y="152" width="180" height="30" as="geometry" />
        </mxCell>
        <mxCell id="a9TTICIvEp7Ggro7SNwL-1" value="LK" style="shape=partialRectangle;connectable=0;fillColor=none;top=0;left=0;bottom=0;right=0;editable=1;overflow=hidden;whiteSpace=wrap;html=1;" parent="a9TTICIvEp7Ggro7SNwL-0" vertex="1">
          <mxGeometry width="30" height="30" as="geometry">
            <mxRectangle width="30" height="30" as="alternateBounds" />
          </mxGeometry>
        </mxCell>
        <mxCell id="a9TTICIvEp7Ggro7SNwL-2" value="week_day_id" style="shape=partialRectangle;connectable=0;fillColor=none;top=0;left=0;bottom=0;right=0;align=left;spacingLeft=6;overflow=hidden;whiteSpace=wrap;html=1;" parent="a9TTICIvEp7Ggro7SNwL-0" vertex="1">
          <mxGeometry x="30" width="150" height="30" as="geometry">
            <mxRectangle width="150" height="30" as="alternateBounds" />
          </mxGeometry>
        </mxCell>
        <mxCell id="kAgSlsQ89UG_GZrHOQOO-4" style="shape=tableRow;horizontal=0;startSize=0;swimlaneHead=0;swimlaneBody=0;fillColor=none;collapsible=0;dropTarget=0;points=[[0,0.5],[1,0.5]];portConstraint=eastwest;top=0;left=0;right=0;bottom=0;" parent="9vlINu2ijhQBHvUozJI8-74" vertex="1">
          <mxGeometry y="182" width="180" height="30" as="geometry" />
        </mxCell>
        <mxCell id="kAgSlsQ89UG_GZrHOQOO-5" value="LK" style="shape=partialRectangle;connectable=0;fillColor=none;top=0;left=0;bottom=0;right=0;editable=1;overflow=hidden;whiteSpace=wrap;html=1;" parent="kAgSlsQ89UG_GZrHOQOO-4" vertex="1">
          <mxGeometry width="30" height="30" as="geometry">
            <mxRectangle width="30" height="30" as="alternateBounds" />
          </mxGeometry>
        </mxCell>
        <mxCell id="kAgSlsQ89UG_GZrHOQOO-6" value="month_day_id" style="shape=partialRectangle;connectable=0;fillColor=none;top=0;left=0;bottom=0;right=0;align=left;spacingLeft=6;overflow=hidden;whiteSpace=wrap;html=1;" parent="kAgSlsQ89UG_GZrHOQOO-4" vertex="1">
          <mxGeometry x="30" width="150" height="30" as="geometry">
            <mxRectangle width="150" height="30" as="alternateBounds" />
          </mxGeometry>
        </mxCell>
        <mxCell id="a9TTICIvEp7Ggro7SNwL-3" style="shape=tableRow;horizontal=0;startSize=0;swimlaneHead=0;swimlaneBody=0;fillColor=none;collapsible=0;dropTarget=0;points=[[0,0.5],[1,0.5]];portConstraint=eastwest;top=0;left=0;right=0;bottom=0;" parent="9vlINu2ijhQBHvUozJI8-74" vertex="1">
          <mxGeometry y="212" width="180" height="30" as="geometry" />
        </mxCell>
        <mxCell id="a9TTICIvEp7Ggro7SNwL-4" value="LK" style="shape=partialRectangle;connectable=0;fillColor=none;top=0;left=0;bottom=0;right=0;editable=1;overflow=hidden;whiteSpace=wrap;html=1;" parent="a9TTICIvEp7Ggro7SNwL-3" vertex="1">
          <mxGeometry width="30" height="30" as="geometry">
            <mxRectangle width="30" height="30" as="alternateBounds" />
          </mxGeometry>
        </mxCell>
        <mxCell id="a9TTICIvEp7Ggro7SNwL-5" value="month_id" style="shape=partialRectangle;connectable=0;fillColor=none;top=0;left=0;bottom=0;right=0;align=left;spacingLeft=6;overflow=hidden;whiteSpace=wrap;html=1;" parent="a9TTICIvEp7Ggro7SNwL-3" vertex="1">
          <mxGeometry x="30" width="150" height="30" as="geometry">
            <mxRectangle width="150" height="30" as="alternateBounds" />
          </mxGeometry>
        </mxCell>
        <mxCell id="a9TTICIvEp7Ggro7SNwL-6" style="shape=tableRow;horizontal=0;startSize=0;swimlaneHead=0;swimlaneBody=0;fillColor=none;collapsible=0;dropTarget=0;points=[[0,0.5],[1,0.5]];portConstraint=eastwest;top=0;left=0;right=0;bottom=0;" parent="9vlINu2ijhQBHvUozJI8-74" vertex="1">
          <mxGeometry y="242" width="180" height="30" as="geometry" />
        </mxCell>
        <mxCell id="a9TTICIvEp7Ggro7SNwL-7" value="LK" style="shape=partialRectangle;connectable=0;fillColor=none;top=0;left=0;bottom=0;right=0;editable=1;overflow=hidden;whiteSpace=wrap;html=1;" parent="a9TTICIvEp7Ggro7SNwL-6" vertex="1">
          <mxGeometry width="30" height="30" as="geometry">
            <mxRectangle width="30" height="30" as="alternateBounds" />
          </mxGeometry>
        </mxCell>
        <mxCell id="a9TTICIvEp7Ggro7SNwL-8" value="quarter_id" style="shape=partialRectangle;connectable=0;fillColor=none;top=0;left=0;bottom=0;right=0;align=left;spacingLeft=6;overflow=hidden;whiteSpace=wrap;html=1;" parent="a9TTICIvEp7Ggro7SNwL-6" vertex="1">
          <mxGeometry x="30" width="150" height="30" as="geometry">
            <mxRectangle width="150" height="30" as="alternateBounds" />
          </mxGeometry>
        </mxCell>
        <mxCell id="9vlINu2ijhQBHvUozJI8-142" style="shape=tableRow;horizontal=0;startSize=0;swimlaneHead=0;swimlaneBody=0;fillColor=none;collapsible=0;dropTarget=0;points=[[0,0.5],[1,0.5]];portConstraint=eastwest;top=0;left=0;right=0;bottom=0;" parent="9vlINu2ijhQBHvUozJI8-74" vertex="1">
          <mxGeometry y="272" width="180" height="30" as="geometry" />
        </mxCell>
        <mxCell id="9vlINu2ijhQBHvUozJI8-143" value="LK" style="shape=partialRectangle;connectable=0;fillColor=none;top=0;left=0;bottom=0;right=0;editable=1;overflow=hidden;whiteSpace=wrap;html=1;" parent="9vlINu2ijhQBHvUozJI8-142" vertex="1">
          <mxGeometry width="30" height="30" as="geometry">
            <mxRectangle width="30" height="30" as="alternateBounds" />
          </mxGeometry>
        </mxCell>
        <mxCell id="9vlINu2ijhQBHvUozJI8-144" value="year" style="shape=partialRectangle;connectable=0;fillColor=none;top=0;left=0;bottom=0;right=0;align=left;spacingLeft=6;overflow=hidden;whiteSpace=wrap;html=1;" parent="9vlINu2ijhQBHvUozJI8-142" vertex="1">
          <mxGeometry x="30" width="150" height="30" as="geometry">
            <mxRectangle width="150" height="30" as="alternateBounds" />
          </mxGeometry>
        </mxCell>
        <mxCell id="9vlINu2ijhQBHvUozJI8-100" value="Location" style="shape=table;startSize=30;container=1;collapsible=1;childLayout=tableLayout;fixedRows=1;rowLines=0;fontStyle=1;align=center;resizeLast=1;html=1;" parent="WIyWlLk6GJQsqaUBKTNV-1" vertex="1">
          <mxGeometry x="1882" y="138" width="180" height="350" as="geometry" />
        </mxCell>
        <mxCell id="9vlINu2ijhQBHvUozJI8-101" value="" style="shape=tableRow;horizontal=0;startSize=0;swimlaneHead=0;swimlaneBody=0;fillColor=none;collapsible=0;dropTarget=0;points=[[0,0.5],[1,0.5]];portConstraint=eastwest;top=0;left=0;right=0;bottom=1;" parent="9vlINu2ijhQBHvUozJI8-100" vertex="1">
          <mxGeometry y="30" width="180" height="30" as="geometry" />
        </mxCell>
        <mxCell id="9vlINu2ijhQBHvUozJI8-102" value="PK" style="shape=partialRectangle;connectable=0;fillColor=none;top=0;left=0;bottom=0;right=0;fontStyle=1;overflow=hidden;whiteSpace=wrap;html=1;" parent="9vlINu2ijhQBHvUozJI8-101" vertex="1">
          <mxGeometry width="28" height="30" as="geometry">
            <mxRectangle width="28" height="30" as="alternateBounds" />
          </mxGeometry>
        </mxCell>
        <mxCell id="9vlINu2ijhQBHvUozJI8-103" value="location_id" style="shape=partialRectangle;connectable=0;fillColor=none;top=0;left=0;bottom=0;right=0;align=left;spacingLeft=6;fontStyle=5;overflow=hidden;whiteSpace=wrap;html=1;" parent="9vlINu2ijhQBHvUozJI8-101" vertex="1">
          <mxGeometry x="28" width="152" height="30" as="geometry">
            <mxRectangle width="152" height="30" as="alternateBounds" />
          </mxGeometry>
        </mxCell>
        <mxCell id="7bIyxyWzbEFd4Pbs0qf7-64" style="shape=tableRow;horizontal=0;startSize=0;swimlaneHead=0;swimlaneBody=0;fillColor=none;collapsible=0;dropTarget=0;points=[[0,0.5],[1,0.5]];portConstraint=eastwest;top=0;left=0;right=0;bottom=0;" parent="9vlINu2ijhQBHvUozJI8-100" vertex="1">
          <mxGeometry y="60" width="180" height="21" as="geometry" />
        </mxCell>
        <mxCell id="7bIyxyWzbEFd4Pbs0qf7-65" value="LK" style="shape=partialRectangle;connectable=0;fillColor=none;top=0;left=0;bottom=0;right=0;editable=1;overflow=hidden;whiteSpace=wrap;html=1;" parent="7bIyxyWzbEFd4Pbs0qf7-64" vertex="1">
          <mxGeometry width="28" height="21" as="geometry">
            <mxRectangle width="28" height="21" as="alternateBounds" />
          </mxGeometry>
        </mxCell>
        <mxCell id="7bIyxyWzbEFd4Pbs0qf7-66" value="city_id" style="shape=partialRectangle;connectable=0;fillColor=none;top=0;left=0;bottom=0;right=0;align=left;spacingLeft=6;overflow=hidden;whiteSpace=wrap;html=1;" parent="7bIyxyWzbEFd4Pbs0qf7-64" vertex="1">
          <mxGeometry x="28" width="152" height="21" as="geometry">
            <mxRectangle width="152" height="21" as="alternateBounds" />
          </mxGeometry>
        </mxCell>
        <mxCell id="9vlINu2ijhQBHvUozJI8-104" value="" style="shape=tableRow;horizontal=0;startSize=0;swimlaneHead=0;swimlaneBody=0;fillColor=none;collapsible=0;dropTarget=0;points=[[0,0.5],[1,0.5]];portConstraint=eastwest;top=0;left=0;right=0;bottom=0;" parent="9vlINu2ijhQBHvUozJI8-100" vertex="1">
          <mxGeometry y="81" width="180" height="30" as="geometry" />
        </mxCell>
        <mxCell id="9vlINu2ijhQBHvUozJI8-105" value="" style="shape=partialRectangle;connectable=0;fillColor=none;top=0;left=0;bottom=0;right=0;editable=1;overflow=hidden;whiteSpace=wrap;html=1;" parent="9vlINu2ijhQBHvUozJI8-104" vertex="1">
          <mxGeometry width="28" height="30" as="geometry">
            <mxRectangle width="28" height="30" as="alternateBounds" />
          </mxGeometry>
        </mxCell>
        <mxCell id="9vlINu2ijhQBHvUozJI8-106" value="city" style="shape=partialRectangle;connectable=0;fillColor=none;top=0;left=0;bottom=0;right=0;align=left;spacingLeft=6;overflow=hidden;whiteSpace=wrap;html=1;" parent="9vlINu2ijhQBHvUozJI8-104" vertex="1">
          <mxGeometry x="28" width="152" height="30" as="geometry">
            <mxRectangle width="152" height="30" as="alternateBounds" />
          </mxGeometry>
        </mxCell>
        <mxCell id="7bIyxyWzbEFd4Pbs0qf7-61" style="shape=tableRow;horizontal=0;startSize=0;swimlaneHead=0;swimlaneBody=0;fillColor=none;collapsible=0;dropTarget=0;points=[[0,0.5],[1,0.5]];portConstraint=eastwest;top=0;left=0;right=0;bottom=0;" parent="9vlINu2ijhQBHvUozJI8-100" vertex="1">
          <mxGeometry y="111" width="180" height="29" as="geometry" />
        </mxCell>
        <mxCell id="7bIyxyWzbEFd4Pbs0qf7-62" value="LK" style="shape=partialRectangle;connectable=0;fillColor=none;top=0;left=0;bottom=0;right=0;editable=1;overflow=hidden;whiteSpace=wrap;html=1;" parent="7bIyxyWzbEFd4Pbs0qf7-61" vertex="1">
          <mxGeometry width="28" height="29" as="geometry">
            <mxRectangle width="28" height="29" as="alternateBounds" />
          </mxGeometry>
        </mxCell>
        <mxCell id="7bIyxyWzbEFd4Pbs0qf7-63" value="state_id" style="shape=partialRectangle;connectable=0;fillColor=none;top=0;left=0;bottom=0;right=0;align=left;spacingLeft=6;overflow=hidden;whiteSpace=wrap;html=1;" parent="7bIyxyWzbEFd4Pbs0qf7-61" vertex="1">
          <mxGeometry x="28" width="152" height="29" as="geometry">
            <mxRectangle width="152" height="29" as="alternateBounds" />
          </mxGeometry>
        </mxCell>
        <mxCell id="9vlINu2ijhQBHvUozJI8-107" value="" style="shape=tableRow;horizontal=0;startSize=0;swimlaneHead=0;swimlaneBody=0;fillColor=none;collapsible=0;dropTarget=0;points=[[0,0.5],[1,0.5]];portConstraint=eastwest;top=0;left=0;right=0;bottom=0;" parent="9vlINu2ijhQBHvUozJI8-100" vertex="1">
          <mxGeometry y="140" width="180" height="30" as="geometry" />
        </mxCell>
        <mxCell id="9vlINu2ijhQBHvUozJI8-108" value="&lt;span style=&quot;white-space: pre;&quot;&gt; &lt;/span&gt;&lt;span style=&quot;white-space: pre;&quot;&gt; &lt;/span&gt;" style="shape=partialRectangle;connectable=0;fillColor=none;top=0;left=0;bottom=0;right=0;editable=1;overflow=hidden;whiteSpace=wrap;html=1;" parent="9vlINu2ijhQBHvUozJI8-107" vertex="1">
          <mxGeometry width="28" height="30" as="geometry">
            <mxRectangle width="28" height="30" as="alternateBounds" />
          </mxGeometry>
        </mxCell>
        <mxCell id="9vlINu2ijhQBHvUozJI8-109" value="state" style="shape=partialRectangle;connectable=0;fillColor=none;top=0;left=0;bottom=0;right=0;align=left;spacingLeft=6;overflow=hidden;whiteSpace=wrap;html=1;" parent="9vlINu2ijhQBHvUozJI8-107" vertex="1">
          <mxGeometry x="28" width="152" height="30" as="geometry">
            <mxRectangle width="152" height="30" as="alternateBounds" />
          </mxGeometry>
        </mxCell>
        <mxCell id="7bIyxyWzbEFd4Pbs0qf7-58" style="shape=tableRow;horizontal=0;startSize=0;swimlaneHead=0;swimlaneBody=0;fillColor=none;collapsible=0;dropTarget=0;points=[[0,0.5],[1,0.5]];portConstraint=eastwest;top=0;left=0;right=0;bottom=0;" parent="9vlINu2ijhQBHvUozJI8-100" vertex="1">
          <mxGeometry y="170" width="180" height="30" as="geometry" />
        </mxCell>
        <mxCell id="7bIyxyWzbEFd4Pbs0qf7-59" value="LK" style="shape=partialRectangle;connectable=0;fillColor=none;top=0;left=0;bottom=0;right=0;editable=1;overflow=hidden;whiteSpace=wrap;html=1;" parent="7bIyxyWzbEFd4Pbs0qf7-58" vertex="1">
          <mxGeometry width="28" height="30" as="geometry">
            <mxRectangle width="28" height="30" as="alternateBounds" />
          </mxGeometry>
        </mxCell>
        <mxCell id="7bIyxyWzbEFd4Pbs0qf7-60" value="country_id" style="shape=partialRectangle;connectable=0;fillColor=none;top=0;left=0;bottom=0;right=0;align=left;spacingLeft=6;overflow=hidden;whiteSpace=wrap;html=1;" parent="7bIyxyWzbEFd4Pbs0qf7-58" vertex="1">
          <mxGeometry x="28" width="152" height="30" as="geometry">
            <mxRectangle width="152" height="30" as="alternateBounds" />
          </mxGeometry>
        </mxCell>
        <mxCell id="9vlINu2ijhQBHvUozJI8-110" value="" style="shape=tableRow;horizontal=0;startSize=0;swimlaneHead=0;swimlaneBody=0;fillColor=none;collapsible=0;dropTarget=0;points=[[0,0.5],[1,0.5]];portConstraint=eastwest;top=0;left=0;right=0;bottom=0;" parent="9vlINu2ijhQBHvUozJI8-100" vertex="1">
          <mxGeometry y="200" width="180" height="30" as="geometry" />
        </mxCell>
        <mxCell id="9vlINu2ijhQBHvUozJI8-111" value="" style="shape=partialRectangle;connectable=0;fillColor=none;top=0;left=0;bottom=0;right=0;editable=1;overflow=hidden;whiteSpace=wrap;html=1;" parent="9vlINu2ijhQBHvUozJI8-110" vertex="1">
          <mxGeometry width="28" height="30" as="geometry">
            <mxRectangle width="28" height="30" as="alternateBounds" />
          </mxGeometry>
        </mxCell>
        <mxCell id="9vlINu2ijhQBHvUozJI8-112" value="country" style="shape=partialRectangle;connectable=0;fillColor=none;top=0;left=0;bottom=0;right=0;align=left;spacingLeft=6;overflow=hidden;whiteSpace=wrap;html=1;" parent="9vlINu2ijhQBHvUozJI8-110" vertex="1">
          <mxGeometry x="28" width="152" height="30" as="geometry">
            <mxRectangle width="152" height="30" as="alternateBounds" />
          </mxGeometry>
        </mxCell>
        <mxCell id="7bIyxyWzbEFd4Pbs0qf7-68" style="shape=tableRow;horizontal=0;startSize=0;swimlaneHead=0;swimlaneBody=0;fillColor=none;collapsible=0;dropTarget=0;points=[[0,0.5],[1,0.5]];portConstraint=eastwest;top=0;left=0;right=0;bottom=0;" parent="9vlINu2ijhQBHvUozJI8-100" vertex="1">
          <mxGeometry y="230" width="180" height="30" as="geometry" />
        </mxCell>
        <mxCell id="7bIyxyWzbEFd4Pbs0qf7-69" value="LK" style="shape=partialRectangle;connectable=0;fillColor=none;top=0;left=0;bottom=0;right=0;editable=1;overflow=hidden;whiteSpace=wrap;html=1;" parent="7bIyxyWzbEFd4Pbs0qf7-68" vertex="1">
          <mxGeometry width="28" height="30" as="geometry">
            <mxRectangle width="28" height="30" as="alternateBounds" />
          </mxGeometry>
        </mxCell>
        <mxCell id="7bIyxyWzbEFd4Pbs0qf7-70" value="region_id" style="shape=partialRectangle;connectable=0;fillColor=none;top=0;left=0;bottom=0;right=0;align=left;spacingLeft=6;overflow=hidden;whiteSpace=wrap;html=1;" parent="7bIyxyWzbEFd4Pbs0qf7-68" vertex="1">
          <mxGeometry x="28" width="152" height="30" as="geometry">
            <mxRectangle width="152" height="30" as="alternateBounds" />
          </mxGeometry>
        </mxCell>
        <mxCell id="9vlINu2ijhQBHvUozJI8-145" style="shape=tableRow;horizontal=0;startSize=0;swimlaneHead=0;swimlaneBody=0;fillColor=none;collapsible=0;dropTarget=0;points=[[0,0.5],[1,0.5]];portConstraint=eastwest;top=0;left=0;right=0;bottom=0;" parent="9vlINu2ijhQBHvUozJI8-100" vertex="1">
          <mxGeometry y="260" width="180" height="30" as="geometry" />
        </mxCell>
        <mxCell id="9vlINu2ijhQBHvUozJI8-146" style="shape=partialRectangle;connectable=0;fillColor=none;top=0;left=0;bottom=0;right=0;editable=1;overflow=hidden;whiteSpace=wrap;html=1;" parent="9vlINu2ijhQBHvUozJI8-145" vertex="1">
          <mxGeometry width="28" height="30" as="geometry">
            <mxRectangle width="28" height="30" as="alternateBounds" />
          </mxGeometry>
        </mxCell>
        <mxCell id="9vlINu2ijhQBHvUozJI8-147" value="region" style="shape=partialRectangle;connectable=0;fillColor=none;top=0;left=0;bottom=0;right=0;align=left;spacingLeft=6;overflow=hidden;whiteSpace=wrap;html=1;" parent="9vlINu2ijhQBHvUozJI8-145" vertex="1">
          <mxGeometry x="28" width="152" height="30" as="geometry">
            <mxRectangle width="152" height="30" as="alternateBounds" />
          </mxGeometry>
        </mxCell>
        <mxCell id="crPJ7tFQ0Vz0llvzbCSS-6" style="shape=tableRow;horizontal=0;startSize=0;swimlaneHead=0;swimlaneBody=0;fillColor=none;collapsible=0;dropTarget=0;points=[[0,0.5],[1,0.5]];portConstraint=eastwest;top=0;left=0;right=0;bottom=0;" parent="9vlINu2ijhQBHvUozJI8-100" vertex="1">
          <mxGeometry y="290" width="180" height="30" as="geometry" />
        </mxCell>
        <mxCell id="crPJ7tFQ0Vz0llvzbCSS-7" value="LK" style="shape=partialRectangle;connectable=0;fillColor=none;top=0;left=0;bottom=0;right=0;editable=1;overflow=hidden;whiteSpace=wrap;html=1;" parent="crPJ7tFQ0Vz0llvzbCSS-6" vertex="1">
          <mxGeometry width="28" height="30" as="geometry">
            <mxRectangle width="28" height="30" as="alternateBounds" />
          </mxGeometry>
        </mxCell>
        <mxCell id="crPJ7tFQ0Vz0llvzbCSS-8" value="market_id" style="shape=partialRectangle;connectable=0;fillColor=none;top=0;left=0;bottom=0;right=0;align=left;spacingLeft=6;overflow=hidden;whiteSpace=wrap;html=1;" parent="crPJ7tFQ0Vz0llvzbCSS-6" vertex="1">
          <mxGeometry x="28" width="152" height="30" as="geometry">
            <mxRectangle width="152" height="30" as="alternateBounds" />
          </mxGeometry>
        </mxCell>
        <mxCell id="7bIyxyWzbEFd4Pbs0qf7-74" style="shape=tableRow;horizontal=0;startSize=0;swimlaneHead=0;swimlaneBody=0;fillColor=none;collapsible=0;dropTarget=0;points=[[0,0.5],[1,0.5]];portConstraint=eastwest;top=0;left=0;right=0;bottom=0;" parent="9vlINu2ijhQBHvUozJI8-100" vertex="1">
          <mxGeometry y="320" width="180" height="30" as="geometry" />
        </mxCell>
        <mxCell id="7bIyxyWzbEFd4Pbs0qf7-75" style="shape=partialRectangle;connectable=0;fillColor=none;top=0;left=0;bottom=0;right=0;editable=1;overflow=hidden;whiteSpace=wrap;html=1;" parent="7bIyxyWzbEFd4Pbs0qf7-74" vertex="1">
          <mxGeometry width="28" height="30" as="geometry">
            <mxRectangle width="28" height="30" as="alternateBounds" />
          </mxGeometry>
        </mxCell>
        <mxCell id="7bIyxyWzbEFd4Pbs0qf7-76" value="market" style="shape=partialRectangle;connectable=0;fillColor=none;top=0;left=0;bottom=0;right=0;align=left;spacingLeft=6;overflow=hidden;whiteSpace=wrap;html=1;" parent="7bIyxyWzbEFd4Pbs0qf7-74" vertex="1">
          <mxGeometry x="28" width="152" height="30" as="geometry">
            <mxRectangle width="152" height="30" as="alternateBounds" />
          </mxGeometry>
        </mxCell>
        <mxCell id="9vlINu2ijhQBHvUozJI8-113" value="Product" style="shape=table;startSize=30;container=1;collapsible=1;childLayout=tableLayout;fixedRows=1;rowLines=0;fontStyle=1;align=center;resizeLast=1;html=1;" parent="WIyWlLk6GJQsqaUBKTNV-1" vertex="1">
          <mxGeometry x="1880" y="877" width="180" height="300" as="geometry" />
        </mxCell>
        <mxCell id="9vlINu2ijhQBHvUozJI8-114" value="" style="shape=tableRow;horizontal=0;startSize=0;swimlaneHead=0;swimlaneBody=0;fillColor=none;collapsible=0;dropTarget=0;points=[[0,0.5],[1,0.5]];portConstraint=eastwest;top=0;left=0;right=0;bottom=1;" parent="9vlINu2ijhQBHvUozJI8-113" vertex="1">
          <mxGeometry y="30" width="180" height="30" as="geometry" />
        </mxCell>
        <mxCell id="9vlINu2ijhQBHvUozJI8-115" value="PK" style="shape=partialRectangle;connectable=0;fillColor=none;top=0;left=0;bottom=0;right=0;fontStyle=1;overflow=hidden;whiteSpace=wrap;html=1;" parent="9vlINu2ijhQBHvUozJI8-114" vertex="1">
          <mxGeometry width="30" height="30" as="geometry">
            <mxRectangle width="30" height="30" as="alternateBounds" />
          </mxGeometry>
        </mxCell>
        <mxCell id="9vlINu2ijhQBHvUozJI8-116" value="product_id" style="shape=partialRectangle;connectable=0;fillColor=none;top=0;left=0;bottom=0;right=0;align=left;spacingLeft=6;fontStyle=5;overflow=hidden;whiteSpace=wrap;html=1;" parent="9vlINu2ijhQBHvUozJI8-114" vertex="1">
          <mxGeometry x="30" width="150" height="30" as="geometry">
            <mxRectangle width="150" height="30" as="alternateBounds" />
          </mxGeometry>
        </mxCell>
        <mxCell id="9vlINu2ijhQBHvUozJI8-178" style="shape=tableRow;horizontal=0;startSize=0;swimlaneHead=0;swimlaneBody=0;fillColor=none;collapsible=0;dropTarget=0;points=[[0,0.5],[1,0.5]];portConstraint=eastwest;top=0;left=0;right=0;bottom=0;" parent="9vlINu2ijhQBHvUozJI8-113" vertex="1">
          <mxGeometry y="60" width="180" height="30" as="geometry" />
        </mxCell>
        <mxCell id="9vlINu2ijhQBHvUozJI8-179" style="shape=partialRectangle;connectable=0;fillColor=none;top=0;left=0;bottom=0;right=0;editable=1;overflow=hidden;whiteSpace=wrap;html=1;" parent="9vlINu2ijhQBHvUozJI8-178" vertex="1">
          <mxGeometry width="30" height="30" as="geometry">
            <mxRectangle width="30" height="30" as="alternateBounds" />
          </mxGeometry>
        </mxCell>
        <mxCell id="9vlINu2ijhQBHvUozJI8-180" value="name" style="shape=partialRectangle;connectable=0;fillColor=none;top=0;left=0;bottom=0;right=0;align=left;spacingLeft=6;overflow=hidden;whiteSpace=wrap;html=1;fontStyle=0" parent="9vlINu2ijhQBHvUozJI8-178" vertex="1">
          <mxGeometry x="30" width="150" height="30" as="geometry">
            <mxRectangle width="150" height="30" as="alternateBounds" />
          </mxGeometry>
        </mxCell>
        <mxCell id="9vlINu2ijhQBHvUozJI8-181" style="shape=tableRow;horizontal=0;startSize=0;swimlaneHead=0;swimlaneBody=0;fillColor=none;collapsible=0;dropTarget=0;points=[[0,0.5],[1,0.5]];portConstraint=eastwest;top=0;left=0;right=0;bottom=0;" parent="9vlINu2ijhQBHvUozJI8-113" vertex="1">
          <mxGeometry y="90" width="180" height="30" as="geometry" />
        </mxCell>
        <mxCell id="9vlINu2ijhQBHvUozJI8-182" style="shape=partialRectangle;connectable=0;fillColor=none;top=0;left=0;bottom=0;right=0;editable=1;overflow=hidden;whiteSpace=wrap;html=1;" parent="9vlINu2ijhQBHvUozJI8-181" vertex="1">
          <mxGeometry width="30" height="30" as="geometry">
            <mxRectangle width="30" height="30" as="alternateBounds" />
          </mxGeometry>
        </mxCell>
        <mxCell id="9vlINu2ijhQBHvUozJI8-183" value="image" style="shape=partialRectangle;connectable=0;fillColor=none;top=0;left=0;bottom=0;right=0;align=left;spacingLeft=6;overflow=hidden;whiteSpace=wrap;html=1;fontStyle=0" parent="9vlINu2ijhQBHvUozJI8-181" vertex="1">
          <mxGeometry x="30" width="150" height="30" as="geometry">
            <mxRectangle width="150" height="30" as="alternateBounds" />
          </mxGeometry>
        </mxCell>
        <mxCell id="9vlINu2ijhQBHvUozJI8-184" style="shape=tableRow;horizontal=0;startSize=0;swimlaneHead=0;swimlaneBody=0;fillColor=none;collapsible=0;dropTarget=0;points=[[0,0.5],[1,0.5]];portConstraint=eastwest;top=0;left=0;right=0;bottom=0;" parent="9vlINu2ijhQBHvUozJI8-113" vertex="1">
          <mxGeometry y="120" width="180" height="30" as="geometry" />
        </mxCell>
        <mxCell id="9vlINu2ijhQBHvUozJI8-185" style="shape=partialRectangle;connectable=0;fillColor=none;top=0;left=0;bottom=0;right=0;editable=1;overflow=hidden;whiteSpace=wrap;html=1;" parent="9vlINu2ijhQBHvUozJI8-184" vertex="1">
          <mxGeometry width="30" height="30" as="geometry">
            <mxRectangle width="30" height="30" as="alternateBounds" />
          </mxGeometry>
        </mxCell>
        <mxCell id="9vlINu2ijhQBHvUozJI8-186" value="price" style="shape=partialRectangle;connectable=0;fillColor=none;top=0;left=0;bottom=0;right=0;align=left;spacingLeft=6;overflow=hidden;whiteSpace=wrap;html=1;fontStyle=0" parent="9vlINu2ijhQBHvUozJI8-184" vertex="1">
          <mxGeometry x="30" width="150" height="30" as="geometry">
            <mxRectangle width="150" height="30" as="alternateBounds" />
          </mxGeometry>
        </mxCell>
        <mxCell id="9vlINu2ijhQBHvUozJI8-187" style="shape=tableRow;horizontal=0;startSize=0;swimlaneHead=0;swimlaneBody=0;fillColor=none;collapsible=0;dropTarget=0;points=[[0,0.5],[1,0.5]];portConstraint=eastwest;top=0;left=0;right=0;bottom=0;" parent="9vlINu2ijhQBHvUozJI8-113" vertex="1">
          <mxGeometry y="150" width="180" height="30" as="geometry" />
        </mxCell>
        <mxCell id="9vlINu2ijhQBHvUozJI8-188" style="shape=partialRectangle;connectable=0;fillColor=none;top=0;left=0;bottom=0;right=0;editable=1;overflow=hidden;whiteSpace=wrap;html=1;" parent="9vlINu2ijhQBHvUozJI8-187" vertex="1">
          <mxGeometry width="30" height="30" as="geometry">
            <mxRectangle width="30" height="30" as="alternateBounds" />
          </mxGeometry>
        </mxCell>
        <mxCell id="9vlINu2ijhQBHvUozJI8-189" value="status" style="shape=partialRectangle;connectable=0;fillColor=none;top=0;left=0;bottom=0;right=0;align=left;spacingLeft=6;overflow=hidden;whiteSpace=wrap;html=1;fontStyle=0" parent="9vlINu2ijhQBHvUozJI8-187" vertex="1">
          <mxGeometry x="30" width="150" height="30" as="geometry">
            <mxRectangle width="150" height="30" as="alternateBounds" />
          </mxGeometry>
        </mxCell>
        <mxCell id="9vlINu2ijhQBHvUozJI8-117" value="" style="shape=tableRow;horizontal=0;startSize=0;swimlaneHead=0;swimlaneBody=0;fillColor=none;collapsible=0;dropTarget=0;points=[[0,0.5],[1,0.5]];portConstraint=eastwest;top=0;left=0;right=0;bottom=0;" parent="9vlINu2ijhQBHvUozJI8-113" vertex="1">
          <mxGeometry y="180" width="180" height="30" as="geometry" />
        </mxCell>
        <mxCell id="9vlINu2ijhQBHvUozJI8-118" value="LK" style="shape=partialRectangle;connectable=0;fillColor=none;top=0;left=0;bottom=0;right=0;editable=1;overflow=hidden;whiteSpace=wrap;html=1;" parent="9vlINu2ijhQBHvUozJI8-117" vertex="1">
          <mxGeometry width="30" height="30" as="geometry">
            <mxRectangle width="30" height="30" as="alternateBounds" />
          </mxGeometry>
        </mxCell>
        <mxCell id="9vlINu2ijhQBHvUozJI8-119" value="category_id" style="shape=partialRectangle;connectable=0;fillColor=none;top=0;left=0;bottom=0;right=0;align=left;spacingLeft=6;overflow=hidden;whiteSpace=wrap;html=1;" parent="9vlINu2ijhQBHvUozJI8-117" vertex="1">
          <mxGeometry x="30" width="150" height="30" as="geometry">
            <mxRectangle width="150" height="30" as="alternateBounds" />
          </mxGeometry>
        </mxCell>
        <mxCell id="9vlINu2ijhQBHvUozJI8-120" value="" style="shape=tableRow;horizontal=0;startSize=0;swimlaneHead=0;swimlaneBody=0;fillColor=none;collapsible=0;dropTarget=0;points=[[0,0.5],[1,0.5]];portConstraint=eastwest;top=0;left=0;right=0;bottom=0;" parent="9vlINu2ijhQBHvUozJI8-113" vertex="1">
          <mxGeometry y="210" width="180" height="30" as="geometry" />
        </mxCell>
        <mxCell id="9vlINu2ijhQBHvUozJI8-121" value="" style="shape=partialRectangle;connectable=0;fillColor=none;top=0;left=0;bottom=0;right=0;editable=1;overflow=hidden;whiteSpace=wrap;html=1;" parent="9vlINu2ijhQBHvUozJI8-120" vertex="1">
          <mxGeometry width="30" height="30" as="geometry">
            <mxRectangle width="30" height="30" as="alternateBounds" />
          </mxGeometry>
        </mxCell>
        <mxCell id="9vlINu2ijhQBHvUozJI8-122" value="category_name" style="shape=partialRectangle;connectable=0;fillColor=none;top=0;left=0;bottom=0;right=0;align=left;spacingLeft=6;overflow=hidden;whiteSpace=wrap;html=1;" parent="9vlINu2ijhQBHvUozJI8-120" vertex="1">
          <mxGeometry x="30" width="150" height="30" as="geometry">
            <mxRectangle width="150" height="30" as="alternateBounds" />
          </mxGeometry>
        </mxCell>
        <mxCell id="9vlINu2ijhQBHvUozJI8-123" value="" style="shape=tableRow;horizontal=0;startSize=0;swimlaneHead=0;swimlaneBody=0;fillColor=none;collapsible=0;dropTarget=0;points=[[0,0.5],[1,0.5]];portConstraint=eastwest;top=0;left=0;right=0;bottom=0;" parent="9vlINu2ijhQBHvUozJI8-113" vertex="1">
          <mxGeometry y="240" width="180" height="30" as="geometry" />
        </mxCell>
        <mxCell id="9vlINu2ijhQBHvUozJI8-124" value="LK" style="shape=partialRectangle;connectable=0;fillColor=none;top=0;left=0;bottom=0;right=0;editable=1;overflow=hidden;whiteSpace=wrap;html=1;" parent="9vlINu2ijhQBHvUozJI8-123" vertex="1">
          <mxGeometry width="30" height="30" as="geometry">
            <mxRectangle width="30" height="30" as="alternateBounds" />
          </mxGeometry>
        </mxCell>
        <mxCell id="9vlINu2ijhQBHvUozJI8-125" value="department_id" style="shape=partialRectangle;connectable=0;fillColor=none;top=0;left=0;bottom=0;right=0;align=left;spacingLeft=6;overflow=hidden;whiteSpace=wrap;html=1;fontStyle=0" parent="9vlINu2ijhQBHvUozJI8-123" vertex="1">
          <mxGeometry x="30" width="150" height="30" as="geometry">
            <mxRectangle width="150" height="30" as="alternateBounds" />
          </mxGeometry>
        </mxCell>
        <mxCell id="9vlINu2ijhQBHvUozJI8-172" style="shape=tableRow;horizontal=0;startSize=0;swimlaneHead=0;swimlaneBody=0;fillColor=none;collapsible=0;dropTarget=0;points=[[0,0.5],[1,0.5]];portConstraint=eastwest;top=0;left=0;right=0;bottom=0;" parent="9vlINu2ijhQBHvUozJI8-113" vertex="1">
          <mxGeometry y="270" width="180" height="30" as="geometry" />
        </mxCell>
        <mxCell id="9vlINu2ijhQBHvUozJI8-173" style="shape=partialRectangle;connectable=0;fillColor=none;top=0;left=0;bottom=0;right=0;editable=1;overflow=hidden;whiteSpace=wrap;html=1;" parent="9vlINu2ijhQBHvUozJI8-172" vertex="1">
          <mxGeometry width="30" height="30" as="geometry">
            <mxRectangle width="30" height="30" as="alternateBounds" />
          </mxGeometry>
        </mxCell>
        <mxCell id="9vlINu2ijhQBHvUozJI8-174" value="department_name" style="shape=partialRectangle;connectable=0;fillColor=none;top=0;left=0;bottom=0;right=0;align=left;spacingLeft=6;overflow=hidden;whiteSpace=wrap;html=1;fontStyle=0" parent="9vlINu2ijhQBHvUozJI8-172" vertex="1">
          <mxGeometry x="30" width="150" height="30" as="geometry">
            <mxRectangle width="150" height="30" as="alternateBounds" />
          </mxGeometry>
        </mxCell>
        <mxCell id="9vlINu2ijhQBHvUozJI8-126" value="Customer" style="shape=table;startSize=30;container=1;collapsible=1;childLayout=tableLayout;fixedRows=1;rowLines=0;fontStyle=1;align=center;resizeLast=1;html=1;" parent="WIyWlLk6GJQsqaUBKTNV-1" vertex="1">
          <mxGeometry x="1880" y="517" width="180" height="330" as="geometry" />
        </mxCell>
        <mxCell id="9vlINu2ijhQBHvUozJI8-127" value="" style="shape=tableRow;horizontal=0;startSize=0;swimlaneHead=0;swimlaneBody=0;fillColor=none;collapsible=0;dropTarget=0;points=[[0,0.5],[1,0.5]];portConstraint=eastwest;top=0;left=0;right=0;bottom=1;" parent="9vlINu2ijhQBHvUozJI8-126" vertex="1">
          <mxGeometry y="30" width="180" height="30" as="geometry" />
        </mxCell>
        <mxCell id="9vlINu2ijhQBHvUozJI8-128" value="PK" style="shape=partialRectangle;connectable=0;fillColor=none;top=0;left=0;bottom=0;right=0;fontStyle=1;overflow=hidden;whiteSpace=wrap;html=1;" parent="9vlINu2ijhQBHvUozJI8-127" vertex="1">
          <mxGeometry width="30" height="30" as="geometry">
            <mxRectangle width="30" height="30" as="alternateBounds" />
          </mxGeometry>
        </mxCell>
        <mxCell id="9vlINu2ijhQBHvUozJI8-129" value="customer_id" style="shape=partialRectangle;connectable=0;fillColor=none;top=0;left=0;bottom=0;right=0;align=left;spacingLeft=6;fontStyle=5;overflow=hidden;whiteSpace=wrap;html=1;" parent="9vlINu2ijhQBHvUozJI8-127" vertex="1">
          <mxGeometry x="30" width="150" height="30" as="geometry">
            <mxRectangle width="150" height="30" as="alternateBounds" />
          </mxGeometry>
        </mxCell>
        <mxCell id="9vlINu2ijhQBHvUozJI8-136" value="" style="shape=tableRow;horizontal=0;startSize=0;swimlaneHead=0;swimlaneBody=0;fillColor=none;collapsible=0;dropTarget=0;points=[[0,0.5],[1,0.5]];portConstraint=eastwest;top=0;left=0;right=0;bottom=0;" parent="9vlINu2ijhQBHvUozJI8-126" vertex="1">
          <mxGeometry y="60" width="180" height="30" as="geometry" />
        </mxCell>
        <mxCell id="9vlINu2ijhQBHvUozJI8-137" value="" style="shape=partialRectangle;connectable=0;fillColor=none;top=0;left=0;bottom=0;right=0;editable=1;overflow=hidden;whiteSpace=wrap;html=1;" parent="9vlINu2ijhQBHvUozJI8-136" vertex="1">
          <mxGeometry width="30" height="30" as="geometry">
            <mxRectangle width="30" height="30" as="alternateBounds" />
          </mxGeometry>
        </mxCell>
        <mxCell id="9vlINu2ijhQBHvUozJI8-138" value="first_name" style="shape=partialRectangle;connectable=0;fillColor=none;top=0;left=0;bottom=0;right=0;align=left;spacingLeft=6;overflow=hidden;whiteSpace=wrap;html=1;" parent="9vlINu2ijhQBHvUozJI8-136" vertex="1">
          <mxGeometry x="30" width="150" height="30" as="geometry">
            <mxRectangle width="150" height="30" as="alternateBounds" />
          </mxGeometry>
        </mxCell>
        <mxCell id="9vlINu2ijhQBHvUozJI8-151" style="shape=tableRow;horizontal=0;startSize=0;swimlaneHead=0;swimlaneBody=0;fillColor=none;collapsible=0;dropTarget=0;points=[[0,0.5],[1,0.5]];portConstraint=eastwest;top=0;left=0;right=0;bottom=0;" parent="9vlINu2ijhQBHvUozJI8-126" vertex="1">
          <mxGeometry y="90" width="180" height="30" as="geometry" />
        </mxCell>
        <mxCell id="9vlINu2ijhQBHvUozJI8-152" style="shape=partialRectangle;connectable=0;fillColor=none;top=0;left=0;bottom=0;right=0;editable=1;overflow=hidden;whiteSpace=wrap;html=1;" parent="9vlINu2ijhQBHvUozJI8-151" vertex="1">
          <mxGeometry width="30" height="30" as="geometry">
            <mxRectangle width="30" height="30" as="alternateBounds" />
          </mxGeometry>
        </mxCell>
        <mxCell id="9vlINu2ijhQBHvUozJI8-153" value="last_name" style="shape=partialRectangle;connectable=0;fillColor=none;top=0;left=0;bottom=0;right=0;align=left;spacingLeft=6;overflow=hidden;whiteSpace=wrap;html=1;" parent="9vlINu2ijhQBHvUozJI8-151" vertex="1">
          <mxGeometry x="30" width="150" height="30" as="geometry">
            <mxRectangle width="150" height="30" as="alternateBounds" />
          </mxGeometry>
        </mxCell>
        <mxCell id="crPJ7tFQ0Vz0llvzbCSS-0" style="shape=tableRow;horizontal=0;startSize=0;swimlaneHead=0;swimlaneBody=0;fillColor=none;collapsible=0;dropTarget=0;points=[[0,0.5],[1,0.5]];portConstraint=eastwest;top=0;left=0;right=0;bottom=0;" parent="9vlINu2ijhQBHvUozJI8-126" vertex="1">
          <mxGeometry y="120" width="180" height="30" as="geometry" />
        </mxCell>
        <mxCell id="crPJ7tFQ0Vz0llvzbCSS-1" style="shape=partialRectangle;connectable=0;fillColor=none;top=0;left=0;bottom=0;right=0;editable=1;overflow=hidden;whiteSpace=wrap;html=1;" parent="crPJ7tFQ0Vz0llvzbCSS-0" vertex="1">
          <mxGeometry width="30" height="30" as="geometry">
            <mxRectangle width="30" height="30" as="alternateBounds" />
          </mxGeometry>
        </mxCell>
        <mxCell id="crPJ7tFQ0Vz0llvzbCSS-2" value="country" style="shape=partialRectangle;connectable=0;fillColor=none;top=0;left=0;bottom=0;right=0;align=left;spacingLeft=6;overflow=hidden;whiteSpace=wrap;html=1;fontStyle=0" parent="crPJ7tFQ0Vz0llvzbCSS-0" vertex="1">
          <mxGeometry x="30" width="150" height="30" as="geometry">
            <mxRectangle width="150" height="30" as="alternateBounds" />
          </mxGeometry>
        </mxCell>
        <mxCell id="9vlINu2ijhQBHvUozJI8-133" value="" style="shape=tableRow;horizontal=0;startSize=0;swimlaneHead=0;swimlaneBody=0;fillColor=none;collapsible=0;dropTarget=0;points=[[0,0.5],[1,0.5]];portConstraint=eastwest;top=0;left=0;right=0;bottom=0;" parent="9vlINu2ijhQBHvUozJI8-126" vertex="1">
          <mxGeometry y="150" width="180" height="30" as="geometry" />
        </mxCell>
        <mxCell id="9vlINu2ijhQBHvUozJI8-134" value="" style="shape=partialRectangle;connectable=0;fillColor=none;top=0;left=0;bottom=0;right=0;editable=1;overflow=hidden;whiteSpace=wrap;html=1;" parent="9vlINu2ijhQBHvUozJI8-133" vertex="1">
          <mxGeometry width="30" height="30" as="geometry">
            <mxRectangle width="30" height="30" as="alternateBounds" />
          </mxGeometry>
        </mxCell>
        <mxCell id="9vlINu2ijhQBHvUozJI8-135" value="city" style="shape=partialRectangle;connectable=0;fillColor=none;top=0;left=0;bottom=0;right=0;align=left;spacingLeft=6;overflow=hidden;whiteSpace=wrap;html=1;" parent="9vlINu2ijhQBHvUozJI8-133" vertex="1">
          <mxGeometry x="30" width="150" height="30" as="geometry">
            <mxRectangle width="150" height="30" as="alternateBounds" />
          </mxGeometry>
        </mxCell>
        <mxCell id="9vlINu2ijhQBHvUozJI8-163" style="shape=tableRow;horizontal=0;startSize=0;swimlaneHead=0;swimlaneBody=0;fillColor=none;collapsible=0;dropTarget=0;points=[[0,0.5],[1,0.5]];portConstraint=eastwest;top=0;left=0;right=0;bottom=0;" parent="9vlINu2ijhQBHvUozJI8-126" vertex="1">
          <mxGeometry y="180" width="180" height="30" as="geometry" />
        </mxCell>
        <mxCell id="9vlINu2ijhQBHvUozJI8-164" style="shape=partialRectangle;connectable=0;fillColor=none;top=0;left=0;bottom=0;right=0;editable=1;overflow=hidden;whiteSpace=wrap;html=1;" parent="9vlINu2ijhQBHvUozJI8-163" vertex="1">
          <mxGeometry width="30" height="30" as="geometry">
            <mxRectangle width="30" height="30" as="alternateBounds" />
          </mxGeometry>
        </mxCell>
        <mxCell id="9vlINu2ijhQBHvUozJI8-165" value="zip_code" style="shape=partialRectangle;connectable=0;fillColor=none;top=0;left=0;bottom=0;right=0;align=left;spacingLeft=6;overflow=hidden;whiteSpace=wrap;html=1;" parent="9vlINu2ijhQBHvUozJI8-163" vertex="1">
          <mxGeometry x="30" width="150" height="30" as="geometry">
            <mxRectangle width="150" height="30" as="alternateBounds" />
          </mxGeometry>
        </mxCell>
        <mxCell id="9vlINu2ijhQBHvUozJI8-169" style="shape=tableRow;horizontal=0;startSize=0;swimlaneHead=0;swimlaneBody=0;fillColor=none;collapsible=0;dropTarget=0;points=[[0,0.5],[1,0.5]];portConstraint=eastwest;top=0;left=0;right=0;bottom=0;fontStyle=1" parent="9vlINu2ijhQBHvUozJI8-126" vertex="1">
          <mxGeometry y="210" width="180" height="30" as="geometry" />
        </mxCell>
        <mxCell id="9vlINu2ijhQBHvUozJI8-170" style="shape=partialRectangle;connectable=0;fillColor=none;top=0;left=0;bottom=0;right=0;editable=1;overflow=hidden;whiteSpace=wrap;html=1;" parent="9vlINu2ijhQBHvUozJI8-169" vertex="1">
          <mxGeometry width="30" height="30" as="geometry">
            <mxRectangle width="30" height="30" as="alternateBounds" />
          </mxGeometry>
        </mxCell>
        <mxCell id="9vlINu2ijhQBHvUozJI8-171" value="latitude" style="shape=partialRectangle;connectable=0;fillColor=none;top=0;left=0;bottom=0;right=0;align=left;spacingLeft=6;overflow=hidden;whiteSpace=wrap;html=1;fontStyle=0" parent="9vlINu2ijhQBHvUozJI8-169" vertex="1">
          <mxGeometry x="30" width="150" height="30" as="geometry">
            <mxRectangle width="150" height="30" as="alternateBounds" />
          </mxGeometry>
        </mxCell>
        <mxCell id="9vlINu2ijhQBHvUozJI8-166" style="shape=tableRow;horizontal=0;startSize=0;swimlaneHead=0;swimlaneBody=0;fillColor=none;collapsible=0;dropTarget=0;points=[[0,0.5],[1,0.5]];portConstraint=eastwest;top=0;left=0;right=0;bottom=0;" parent="9vlINu2ijhQBHvUozJI8-126" vertex="1">
          <mxGeometry y="240" width="180" height="30" as="geometry" />
        </mxCell>
        <mxCell id="9vlINu2ijhQBHvUozJI8-167" style="shape=partialRectangle;connectable=0;fillColor=none;top=0;left=0;bottom=0;right=0;editable=1;overflow=hidden;whiteSpace=wrap;html=1;" parent="9vlINu2ijhQBHvUozJI8-166" vertex="1">
          <mxGeometry width="30" height="30" as="geometry">
            <mxRectangle width="30" height="30" as="alternateBounds" />
          </mxGeometry>
        </mxCell>
        <mxCell id="9vlINu2ijhQBHvUozJI8-168" value="longitude" style="shape=partialRectangle;connectable=0;fillColor=none;top=0;left=0;bottom=0;right=0;align=left;spacingLeft=6;overflow=hidden;whiteSpace=wrap;html=1;fontStyle=0" parent="9vlINu2ijhQBHvUozJI8-166" vertex="1">
          <mxGeometry x="30" width="150" height="30" as="geometry">
            <mxRectangle width="150" height="30" as="alternateBounds" />
          </mxGeometry>
        </mxCell>
        <mxCell id="8LSA0JV7mJ2hiwA9IjpK-6" style="shape=tableRow;horizontal=0;startSize=0;swimlaneHead=0;swimlaneBody=0;fillColor=none;collapsible=0;dropTarget=0;points=[[0,0.5],[1,0.5]];portConstraint=eastwest;top=0;left=0;right=0;bottom=0;" parent="9vlINu2ijhQBHvUozJI8-126" vertex="1">
          <mxGeometry y="270" width="180" height="30" as="geometry" />
        </mxCell>
        <mxCell id="8LSA0JV7mJ2hiwA9IjpK-7" value="LK" style="shape=partialRectangle;connectable=0;fillColor=none;top=0;left=0;bottom=0;right=0;editable=1;overflow=hidden;whiteSpace=wrap;html=1;" parent="8LSA0JV7mJ2hiwA9IjpK-6" vertex="1">
          <mxGeometry width="30" height="30" as="geometry">
            <mxRectangle width="30" height="30" as="alternateBounds" />
          </mxGeometry>
        </mxCell>
        <mxCell id="8LSA0JV7mJ2hiwA9IjpK-8" value="segment_id" style="shape=partialRectangle;connectable=0;fillColor=none;top=0;left=0;bottom=0;right=0;align=left;spacingLeft=6;overflow=hidden;whiteSpace=wrap;html=1;fontStyle=0" parent="8LSA0JV7mJ2hiwA9IjpK-6" vertex="1">
          <mxGeometry x="30" width="150" height="30" as="geometry">
            <mxRectangle width="150" height="30" as="alternateBounds" />
          </mxGeometry>
        </mxCell>
        <mxCell id="8LSA0JV7mJ2hiwA9IjpK-3" style="shape=tableRow;horizontal=0;startSize=0;swimlaneHead=0;swimlaneBody=0;fillColor=none;collapsible=0;dropTarget=0;points=[[0,0.5],[1,0.5]];portConstraint=eastwest;top=0;left=0;right=0;bottom=0;" parent="9vlINu2ijhQBHvUozJI8-126" vertex="1">
          <mxGeometry y="300" width="180" height="30" as="geometry" />
        </mxCell>
        <mxCell id="8LSA0JV7mJ2hiwA9IjpK-4" style="shape=partialRectangle;connectable=0;fillColor=none;top=0;left=0;bottom=0;right=0;editable=1;overflow=hidden;whiteSpace=wrap;html=1;" parent="8LSA0JV7mJ2hiwA9IjpK-3" vertex="1">
          <mxGeometry width="30" height="30" as="geometry">
            <mxRectangle width="30" height="30" as="alternateBounds" />
          </mxGeometry>
        </mxCell>
        <mxCell id="8LSA0JV7mJ2hiwA9IjpK-5" value="segment" style="shape=partialRectangle;connectable=0;fillColor=none;top=0;left=0;bottom=0;right=0;align=left;spacingLeft=6;overflow=hidden;whiteSpace=wrap;html=1;fontStyle=0" parent="8LSA0JV7mJ2hiwA9IjpK-3" vertex="1">
          <mxGeometry x="30" width="150" height="30" as="geometry">
            <mxRectangle width="150" height="30" as="alternateBounds" />
          </mxGeometry>
        </mxCell>
        <mxCell id="9vlINu2ijhQBHvUozJI8-374" value="&lt;font style=&quot;font-size: 48px;&quot;&gt;Dimentional Model&lt;br&gt;Supply chain DATA Co&lt;br&gt;&lt;/font&gt;" style="text;html=1;align=center;verticalAlign=middle;resizable=0;points=[];autosize=1;strokeColor=none;fillColor=none;" parent="WIyWlLk6GJQsqaUBKTNV-1" vertex="1">
          <mxGeometry x="1722" y="-130" width="500" height="130" as="geometry" />
        </mxCell>
        <mxCell id="9vlINu2ijhQBHvUozJI8-375" value="&lt;font style=&quot;font-size: 18px;&quot;&gt;Star schema&lt;br&gt;Fact tables are market by color (yellow)&lt;/font&gt;" style="text;html=1;align=center;verticalAlign=middle;resizable=0;points=[];autosize=1;strokeColor=none;fillColor=none;" parent="WIyWlLk6GJQsqaUBKTNV-1" vertex="1">
          <mxGeometry x="1809" y="-9" width="340" height="60" as="geometry" />
        </mxCell>
        <mxCell id="QiSwKCBEO4TTE51w_iMC-3" value="" style="line;strokeWidth=1;fillColor=none;align=left;verticalAlign=middle;spacingTop=-1;spacingLeft=3;spacingRight=3;rotatable=0;labelPosition=right;points=[];portConstraint=eastwest;strokeColor=inherit;" parent="WIyWlLk6GJQsqaUBKTNV-1" vertex="1">
          <mxGeometry x="1880" y="1050" width="180" height="8" as="geometry" />
        </mxCell>
        <mxCell id="7bIyxyWzbEFd4Pbs0qf7-39" value="" style="line;strokeWidth=1;fillColor=none;align=left;verticalAlign=middle;spacingTop=-1;spacingLeft=3;spacingRight=3;rotatable=0;labelPosition=right;points=[];portConstraint=eastwest;strokeColor=inherit;" parent="WIyWlLk6GJQsqaUBKTNV-1" vertex="1">
          <mxGeometry x="1880" y="1110" width="180" height="8" as="geometry" />
        </mxCell>
        <mxCell id="7bIyxyWzbEFd4Pbs0qf7-40" value="" style="line;strokeWidth=1;fillColor=none;align=left;verticalAlign=middle;spacingTop=-1;spacingLeft=3;spacingRight=3;rotatable=0;labelPosition=right;points=[];portConstraint=eastwest;strokeColor=inherit;" parent="WIyWlLk6GJQsqaUBKTNV-1" vertex="1">
          <mxGeometry x="1880" y="242" width="180" height="8" as="geometry" />
        </mxCell>
        <mxCell id="7bIyxyWzbEFd4Pbs0qf7-57" value="" style="line;strokeWidth=1;fillColor=none;align=left;verticalAlign=middle;spacingTop=-1;spacingLeft=3;spacingRight=3;rotatable=0;labelPosition=right;points=[];portConstraint=eastwest;strokeColor=inherit;" parent="WIyWlLk6GJQsqaUBKTNV-1" vertex="1">
          <mxGeometry x="1882" y="361" width="180" height="8" as="geometry" />
        </mxCell>
        <mxCell id="7bIyxyWzbEFd4Pbs0qf7-67" value="" style="line;strokeWidth=1;fillColor=none;align=left;verticalAlign=middle;spacingTop=-1;spacingLeft=3;spacingRight=3;rotatable=0;labelPosition=right;points=[];portConstraint=eastwest;strokeColor=inherit;" parent="WIyWlLk6GJQsqaUBKTNV-1" vertex="1">
          <mxGeometry x="1881" y="299" width="180" height="8" as="geometry" />
        </mxCell>
        <mxCell id="7bIyxyWzbEFd4Pbs0qf7-73" value="" style="line;strokeWidth=1;fillColor=none;align=left;verticalAlign=middle;spacingTop=-1;spacingLeft=3;spacingRight=3;rotatable=0;labelPosition=right;points=[];portConstraint=eastwest;strokeColor=inherit;" parent="WIyWlLk6GJQsqaUBKTNV-1" vertex="1">
          <mxGeometry x="1882" y="422" width="180" height="8" as="geometry" />
        </mxCell>
        <mxCell id="a9TTICIvEp7Ggro7SNwL-12" value="" style="line;strokeWidth=1;fillColor=none;align=left;verticalAlign=middle;spacingTop=-1;spacingLeft=3;spacingRight=3;rotatable=0;labelPosition=right;points=[];portConstraint=eastwest;strokeColor=inherit;" parent="WIyWlLk6GJQsqaUBKTNV-1" vertex="1">
          <mxGeometry x="2160" y="220" width="180" height="8" as="geometry" />
        </mxCell>
        <mxCell id="a9TTICIvEp7Ggro7SNwL-13" value="" style="line;strokeWidth=1;fillColor=none;align=left;verticalAlign=middle;spacingTop=-1;spacingLeft=3;spacingRight=3;rotatable=0;labelPosition=right;points=[];portConstraint=eastwest;strokeColor=inherit;" parent="WIyWlLk6GJQsqaUBKTNV-1" vertex="1">
          <mxGeometry x="2160" y="320" width="180" height="8" as="geometry" />
        </mxCell>
        <mxCell id="a9TTICIvEp7Ggro7SNwL-14" value="" style="line;strokeWidth=1;fillColor=none;align=left;verticalAlign=middle;spacingTop=-1;spacingLeft=3;spacingRight=3;rotatable=0;labelPosition=right;points=[];portConstraint=eastwest;strokeColor=inherit;" parent="WIyWlLk6GJQsqaUBKTNV-1" vertex="1">
          <mxGeometry x="2160" y="350" width="180" height="8" as="geometry" />
        </mxCell>
        <mxCell id="a9TTICIvEp7Ggro7SNwL-15" value="" style="line;strokeWidth=1;fillColor=none;align=left;verticalAlign=middle;spacingTop=-1;spacingLeft=3;spacingRight=3;rotatable=0;labelPosition=right;points=[];portConstraint=eastwest;strokeColor=inherit;" parent="WIyWlLk6GJQsqaUBKTNV-1" vertex="1">
          <mxGeometry x="2160" y="380" width="180" height="8" as="geometry" />
        </mxCell>
        <mxCell id="8LSA0JV7mJ2hiwA9IjpK-9" value="" style="line;strokeWidth=1;fillColor=none;align=left;verticalAlign=middle;spacingTop=-1;spacingLeft=3;spacingRight=3;rotatable=0;labelPosition=right;points=[];portConstraint=eastwest;strokeColor=inherit;" parent="WIyWlLk6GJQsqaUBKTNV-1" vertex="1">
          <mxGeometry x="1880" y="783" width="180" height="8" as="geometry" />
        </mxCell>
        <mxCell id="ciR2sDOiCZd-9xjIovYl-26" style="edgeStyle=orthogonalEdgeStyle;rounded=0;orthogonalLoop=1;jettySize=auto;html=1;exitX=1;exitY=0.5;exitDx=0;exitDy=0;entryX=0;entryY=0.5;entryDx=0;entryDy=0;" parent="WIyWlLk6GJQsqaUBKTNV-1" target="7bIyxyWzbEFd4Pbs0qf7-61" edge="1">
          <mxGeometry relative="1" as="geometry" />
        </mxCell>
        <mxCell id="ciR2sDOiCZd-9xjIovYl-27" style="edgeStyle=orthogonalEdgeStyle;rounded=0;orthogonalLoop=1;jettySize=auto;html=1;exitX=1;exitY=0.5;exitDx=0;exitDy=0;entryX=0;entryY=0.5;entryDx=0;entryDy=0;" parent="WIyWlLk6GJQsqaUBKTNV-1" source="8LSA0JV7mJ2hiwA9IjpK-10" target="7bIyxyWzbEFd4Pbs0qf7-61" edge="1">
          <mxGeometry relative="1" as="geometry" />
        </mxCell>
        <mxCell id="ciR2sDOiCZd-9xjIovYl-28" style="edgeStyle=orthogonalEdgeStyle;rounded=0;orthogonalLoop=1;jettySize=auto;html=1;exitX=1;exitY=0.5;exitDx=0;exitDy=0;" parent="WIyWlLk6GJQsqaUBKTNV-1" source="9vlINu2ijhQBHvUozJI8-4" edge="1">
          <mxGeometry relative="1" as="geometry">
            <mxPoint x="1880" y="592" as="targetPoint" />
          </mxGeometry>
        </mxCell>
        <mxCell id="ciR2sDOiCZd-9xjIovYl-30" style="edgeStyle=orthogonalEdgeStyle;rounded=0;orthogonalLoop=1;jettySize=auto;html=1;exitX=0;exitY=0.5;exitDx=0;exitDy=0;" parent="WIyWlLk6GJQsqaUBKTNV-1" target="9vlINu2ijhQBHvUozJI8-114" edge="1">
          <mxGeometry relative="1" as="geometry" />
        </mxCell>
        <mxCell id="ciR2sDOiCZd-9xjIovYl-31" style="edgeStyle=orthogonalEdgeStyle;rounded=0;orthogonalLoop=1;jettySize=auto;html=1;exitX=0;exitY=0.5;exitDx=0;exitDy=0;entryX=1;entryY=0.5;entryDx=0;entryDy=0;" parent="WIyWlLk6GJQsqaUBKTNV-1" target="8LSA0JV7mJ2hiwA9IjpK-6" edge="1">
          <mxGeometry relative="1" as="geometry" />
        </mxCell>
        <mxCell id="ciR2sDOiCZd-9xjIovYl-33" style="edgeStyle=orthogonalEdgeStyle;rounded=0;orthogonalLoop=1;jettySize=auto;html=1;entryX=0.25;entryY=0;entryDx=0;entryDy=0;" parent="WIyWlLk6GJQsqaUBKTNV-1" target="9vlINu2ijhQBHvUozJI8-74" edge="1">
          <mxGeometry relative="1" as="geometry">
            <mxPoint x="1685" y="158" as="sourcePoint" />
            <Array as="points">
              <mxPoint x="1685" y="110" />
              <mxPoint x="2205" y="110" />
            </Array>
          </mxGeometry>
        </mxCell>
        <mxCell id="ciR2sDOiCZd-9xjIovYl-34" style="edgeStyle=orthogonalEdgeStyle;rounded=0;orthogonalLoop=1;jettySize=auto;html=1;entryX=1;entryY=0.5;entryDx=0;entryDy=0;" parent="WIyWlLk6GJQsqaUBKTNV-1" source="9vlINu2ijhQBHvUozJI8-27" target="crPJ7tFQ0Vz0llvzbCSS-6" edge="1">
          <mxGeometry relative="1" as="geometry">
            <Array as="points">
              <mxPoint x="2130" y="712" />
              <mxPoint x="2130" y="443" />
            </Array>
          </mxGeometry>
        </mxCell>
        <mxCell id="ciR2sDOiCZd-9xjIovYl-38" style="edgeStyle=orthogonalEdgeStyle;rounded=0;orthogonalLoop=1;jettySize=auto;html=1;exitX=0;exitY=0.5;exitDx=0;exitDy=0;entryX=0.75;entryY=0;entryDx=0;entryDy=0;" parent="WIyWlLk6GJQsqaUBKTNV-1" source="crPJ7tFQ0Vz0llvzbCSS-52" target="9vlINu2ijhQBHvUozJI8-74" edge="1">
          <mxGeometry relative="1" as="geometry">
            <Array as="points">
              <mxPoint x="1560" y="834" />
              <mxPoint x="1560" y="70" />
              <mxPoint x="2295" y="70" />
            </Array>
          </mxGeometry>
        </mxCell>
        <mxCell id="ciR2sDOiCZd-9xjIovYl-40" style="edgeStyle=orthogonalEdgeStyle;rounded=0;orthogonalLoop=1;jettySize=auto;html=1;exitX=1;exitY=0.5;exitDx=0;exitDy=0;entryX=0;entryY=0.5;entryDx=0;entryDy=0;" parent="WIyWlLk6GJQsqaUBKTNV-1" source="9vlINu2ijhQBHvUozJI8-232" target="9vlINu2ijhQBHvUozJI8-114" edge="1">
          <mxGeometry relative="1" as="geometry" />
        </mxCell>
        <mxCell id="kAgSlsQ89UG_GZrHOQOO-3" value="" style="line;strokeWidth=1;fillColor=none;align=left;verticalAlign=middle;spacingTop=-1;spacingLeft=3;spacingRight=3;rotatable=0;labelPosition=right;points=[];portConstraint=eastwest;strokeColor=inherit;" parent="WIyWlLk6GJQsqaUBKTNV-1" vertex="1">
          <mxGeometry x="2160" y="280" width="180" height="8" as="geometry" />
        </mxCell>
        <mxCell id="kAgSlsQ89UG_GZrHOQOO-14" value="" style="line;strokeWidth=1;fillColor=none;align=left;verticalAlign=middle;spacingTop=-1;spacingLeft=3;spacingRight=3;rotatable=0;labelPosition=right;points=[];portConstraint=eastwest;strokeColor=inherit;" parent="WIyWlLk6GJQsqaUBKTNV-1" vertex="1">
          <mxGeometry x="2160" y="408.5" width="180" height="8" as="geometry" />
        </mxCell>
        <mxCell id="kAgSlsQ89UG_GZrHOQOO-15" value="LK" style="shape=partialRectangle;connectable=0;fillColor=none;top=0;left=0;bottom=0;right=0;editable=1;overflow=hidden;whiteSpace=wrap;html=1;" parent="WIyWlLk6GJQsqaUBKTNV-1" vertex="1">
          <mxGeometry x="2160" y="196" width="30" height="32" as="geometry">
            <mxRectangle width="30" height="32" as="alternateBounds" />
          </mxGeometry>
        </mxCell>
        <mxCell id="bsCWKdfR8dkoKBeMGFaL-6" value="" style="endArrow=classic;html=1;rounded=0;exitX=0;exitY=0.13;exitDx=0;exitDy=0;exitPerimeter=0;entryX=1;entryY=0.5;entryDx=0;entryDy=0;" parent="WIyWlLk6GJQsqaUBKTNV-1" source="bsCWKdfR8dkoKBeMGFaL-0" target="9vlINu2ijhQBHvUozJI8-178" edge="1">
          <mxGeometry width="50" height="50" relative="1" as="geometry">
            <mxPoint x="1920" y="970" as="sourcePoint" />
            <mxPoint x="2130" y="980" as="targetPoint" />
            <Array as="points">
              <mxPoint x="2130" y="790" />
              <mxPoint x="2130" y="952" />
            </Array>
          </mxGeometry>
        </mxCell>
      </root>
    </mxGraphModel>
  </diagram>
</mxfile>
